<?xml version="1.0" encoding="UTF-8"?>
<svg version="1.1" xmlns="http://www.w3.org/2000/svg" width="713" height="350">
<path d="M0 0 C2.8822933 1.3608229 4.69361618 3.59506139 6.87915039 5.88720703 C7.70415039 6.54720703 8.52915039 7.20720703 9.37915039 7.88720703 C14.16824843 11.71848546 17.96637453 16.19187599 21.87915039 20.88720703 C24.29911268 23.42816743 26.67531785 25.72811822 29.44165039 27.88720703 C32.02392092 30.00599311 33.82805125 32.25923625 35.87915039 34.88720703 C39.33477379 38.52470535 42.99538747 41.72600465 46.87915039 44.88720703 C46.34845978 48.70817942 45.38213473 50.94892106 42.87915039 53.88720703 C43.55977539 54.44408203 44.24040039 55.00095703 44.94165039 55.57470703 C46.87915039 57.88720703 46.87915039 57.88720703 46.94165039 60.38720703 C45.54775231 63.66696722 43.71977256 64.72586408 40.87915039 66.88720703 C39.7100077 68.17898706 38.56584241 69.4936238 37.44165039 70.82470703 C34.51421893 74.25795818 31.34845393 76.99612075 27.87915039 79.88720703 C26.00022715 81.99112738 24.18423529 84.13258782 22.39477539 86.31298828 C21.89461914 86.83248047 21.39446289 87.35197266 20.87915039 87.88720703 C20.21915039 87.88720703 19.55915039 87.88720703 18.87915039 87.88720703 C18.38415039 89.37220703 18.38415039 89.37220703 17.87915039 90.88720703 C14.48665194 94.57049106 10.72694545 97.69435581 6.87915039 100.88720703 C6.17790039 101.62970703 5.47665039 102.37220703 4.75415039 103.13720703 C2.65132362 105.09984535 1.75329343 105.80267341 -1.12084961 105.88720703 C-5.91987013 103.90918751 -8.70867031 101.49985797 -12.05834961 97.57470703 C-15.34986665 93.82001244 -18.6062317 90.48828167 -22.47241211 87.34814453 C-25.06204907 85.05306344 -27.20179302 82.39206435 -29.43725586 79.75830078 C-31.23391859 77.67194214 -31.23391859 77.67194214 -34.12084961 75.38720703 C-37.2846094 72.75074054 -39.78982886 69.91571563 -42.40991211 66.75439453 C-44.16566415 64.83829984 -45.99906711 63.37894058 -48.12084961 61.88720703 C-47.61786173 57.48606306 -46.0331223 55.17525684 -43.12084961 51.88720703 C-43.76022461 51.63970703 -44.39959961 51.39220703 -45.05834961 51.13720703 C-47.12084961 49.88720703 -47.12084961 49.88720703 -47.96508789 48.05493164 C-48.12084961 45.88720703 -48.12084961 45.88720703 -46.75317383 43.9519043 C-46.06755371 43.29246826 -45.38193359 42.63303223 -44.67553711 41.95361328 C-43.92788086 41.22207031 -43.18022461 40.49052734 -42.40991211 39.73681641 C-41.61327148 38.98207031 -40.81663086 38.22732422 -39.99584961 37.44970703 C-39.22241211 36.69882813 -38.44897461 35.94794922 -37.65209961 35.17431641 C-36.14737327 33.71452643 -34.6380521 32.25945515 -33.1237793 30.80957031 C-30.75477408 28.53585663 -28.43262964 26.21898516 -26.12084961 23.88720703 C-25.38995117 23.16275391 -24.65905273 22.43830078 -23.90600586 21.69189453 C-21.45096456 19.21963696 -19.03202517 16.71865293 -16.61694336 14.20751953 C-14.93106648 12.47543616 -13.24485983 10.74367373 -11.55834961 9.01220703 C-10.28314453 7.67416016 -10.28314453 7.67416016 -8.98217773 6.30908203 C-8.16040039 5.47119141 -7.33862305 4.63330078 -6.49194336 3.77001953 C-5.74871826 3.00061035 -5.00549316 2.23120117 -4.23974609 1.43847656 C-2.12084961 -0.11279297 -2.12084961 -0.11279297 0 0 Z M-1.12084961 5.88720703 C-6.11335991 10.07400962 -11.04848049 14.21318236 -15.05834961 19.38720703 C-16.77352068 21.46620227 -18.292381 22.91485271 -20.37084961 24.57470703 C-21.73209961 25.71939453 -21.73209961 25.71939453 -23.12084961 26.88720703 C-23.12084961 27.54720703 -23.12084961 28.20720703 -23.12084961 28.88720703 C-23.98709961 29.22751953 -23.98709961 29.22751953 -24.87084961 29.57470703 C-27.69999494 31.22504181 -29.10359557 33.3197928 -31.12084961 35.88720703 C-31.90459961 36.50595703 -32.68834961 37.12470703 -33.49584961 37.76220703 C-36.82566404 40.45777109 -39.41759078 43.5801275 -42.12084961 46.88720703 C-38.7684608 51.18245519 -35.18017928 54.69174268 -31.03881836 58.22705078 C-28.60782865 60.33126795 -26.36316985 62.58428354 -24.12084961 64.88720703 C-22.45571923 66.55543245 -20.78868854 68.22169279 -19.12084961 69.88720703 C-17.7418577 71.26602762 -16.3629596 72.64494203 -14.98413086 74.02392578 C-13.87134766 75.13670898 -13.87134766 75.13670898 -12.73608398 76.27197266 C-8.53100586 80.47705078 -4.32592773 84.68212891 -0.12084961 88.88720703 C0.70415039 87.87658203 1.52915039 86.86595703 2.37915039 85.82470703 C5.32286373 82.37297697 8.55617865 79.50065564 12.00805664 76.57080078 C14.09441529 74.77413805 14.09441529 74.77413805 16.37915039 71.88720703 C18.44596895 69.40702476 20.37694016 67.52046297 22.81665039 65.44970703 C26.00618595 62.73711136 28.64322094 59.89285589 31.29321289 56.66455078 C34.18962588 53.41857071 37.54529631 50.6710598 40.87915039 47.88720703 C38.70793584 43.40907703 35.64967018 40.84436577 31.92211914 37.70751953 C30.03999723 36.03052371 28.47255736 34.33421939 26.87915039 32.38720703 C24.13676227 29.04702314 21.03850683 26.36178367 17.75024414 23.57080078 C15.16960445 21.24876381 13.09955599 18.55169376 10.87915039 15.88720703 C7.06665278 12.30484006 3.08940438 8.99098001 -1.12084961 5.88720703 Z " fill="#48649E" transform="translate(141.120849609375,116.11279296875)"/>
<path d="M0 0 C3.38428632 0.62963466 4.35396096 2.14880728 6.3515625 4.83984375 C7.75878834 6.58858932 9.23882017 7.86503464 11 9.25 C11.886875 9.9925 12.77375 10.735 13.6875 11.5 C13.6875 12.16 13.6875 12.82 13.6875 13.5 C14.265 13.726875 14.8425 13.95375 15.4375 14.1875 C18.27184736 15.8408693 19.65512189 17.92963944 21.6875 20.5 C22.75222782 21.41786881 23.83627303 22.31375654 24.9375 23.1875 C25.845 23.950625 26.7525 24.71375 27.6875 25.5 C27.6875 26.16 27.6875 26.82 27.6875 27.5 C28.615625 27.933125 28.615625 27.933125 29.5625 28.375 C31.6875 29.5 31.6875 29.5 33.6875 31.5 C34.0390625 33.9140625 34.0390625 33.9140625 33.6875 36.5 C32.1484375 38.2734375 32.1484375 38.2734375 30.0625 39.875 C27.2443019 42.15639846 24.80030556 44.38268878 22.5 47.1875 C20.14289089 50.04788375 17.63389996 52.2335385 14.6875 54.5 C12.99987149 56.1454378 11.3334651 57.81288577 9.6875 59.5 C2.6875 66.5 2.6875 66.5 0.0625 66.625 C-0.72125 66.58375 -1.505 66.5425 -2.3125 66.5 C-2.3125 65.84 -2.3125 65.18 -2.3125 64.5 C-3.075625 64.2525 -3.83875 64.005 -4.625 63.75 C-7.57330945 62.37869328 -8.67084532 61.2648921 -10.3125 58.5 C-10.3125 57.84 -10.3125 57.18 -10.3125 56.5 C-10.951875 56.231875 -11.59125 55.96375 -12.25 55.6875 C-14.3125 54.5 -14.3125 54.5 -15.3125 51.5 C-16.075625 51.231875 -16.83875 50.96375 -17.625 50.6875 C-20.67859939 49.33823515 -21.35827347 48.01555365 -23 45.2109375 C-25.26620206 42.25678125 -28.41823975 40.37081698 -31.484375 38.30859375 C-33.3125 36.5 -33.3125 36.5 -33.83203125 34.0234375 C-33.14473613 30.68514692 -31.8987918 29.78796095 -29.25 27.6875 C-26.08588497 25.05900319 -23.27431081 22.46078415 -20.625 19.3125 C-17.79175491 15.95819834 -14.6894823 13.31415192 -11.3125 10.5 C-9.43116453 8.4645215 -7.62184483 6.38240393 -5.828125 4.26953125 C-2.66470034 0.57615142 -2.66470034 0.57615142 0 0 Z M-2.375 21.5 C-3.35450366 22.49966991 -4.33361135 23.49972786 -5.3125 24.5 C-6.7486696 25.93882917 -8.18622506 27.37627608 -9.625 28.8125 C-10.32238281 29.50988281 -11.01976562 30.20726562 -11.73828125 30.92578125 C-12.25777344 31.44527344 -12.77726562 31.96476562 -13.3125 32.5 C-11.55179177 36.30152914 -9.31932657 38.5615104 -6.3125 41.5 C-4.27456305 43.80166997 -2.28785163 46.14451198 -0.3125 48.5 C5.42599846 44.07315833 10.13134499 39.09756187 14.6875 33.5 C13.5904946 32.4029946 12.49311849 31.30635878 11.39453125 30.2109375 C10.05360267 28.86694043 8.71896541 27.51666607 7.38671875 26.1640625 C6.57847656 25.34679687 5.77023438 24.52953125 4.9375 23.6875 C4.15890625 22.89730469 3.3803125 22.10710937 2.578125 21.29296875 C0.11189174 18.85942199 0.11189174 18.85942199 -2.375 21.5 Z " fill="#49649E" transform="translate(140.3125,129.5)"/>
<path d="M0 0 C1.48831242 0.00667405 2.97660807 0.01863442 4.46484375 0.03515625 C5.22345703 0.03966797 5.98207031 0.04417969 6.76367188 0.04882812 C8.64326246 0.06064945 10.52281274 0.07858547 12.40234375 0.09765625 C15.48473765 7.81627377 18.25307012 15.54253619 20.60546875 23.515625 C21.31083565 26.05094026 21.31083565 26.05094026 22.40234375 28.09765625 C25.332151 20.26939656 27.948234 12.58413354 29.82421875 4.42578125 C30.40234375 2.09765625 30.40234375 2.09765625 31.40234375 0.09765625 C36.68234375 0.09765625 41.96234375 0.09765625 47.40234375 0.09765625 C48.22171666 3.37514787 48.50668794 5.41470826 48.42407227 8.68261719 C48.40397598 9.5832489 48.3838797 10.48388062 48.36317444 11.4118042 C48.33613937 12.37547913 48.30910431 13.33915405 48.28125 14.33203125 C48.24583351 15.8217746 48.24583351 15.8217746 48.20970154 17.34161377 C48.13319307 20.51044463 48.04911335 23.67902321 47.96484375 26.84765625 C47.91161025 28.99738353 47.85886994 31.14712309 47.80664062 33.296875 C47.67759519 38.56396153 47.54175962 43.83083443 47.40234375 49.09765625 C44.10234375 49.09765625 40.80234375 49.09765625 37.40234375 49.09765625 C36.74379455 45.22867968 36.34780446 41.58698485 36.40234375 37.66015625 C36.46116756 33.38072433 36.01808311 29.33086433 35.40234375 25.09765625 C34.91314453 26.58265625 34.91314453 26.58265625 34.4140625 28.09765625 C28.00094518 47.49905482 28.00094518 47.49905482 26.40234375 49.09765625 C24.88306337 49.16945589 23.36066893 49.18157632 21.83984375 49.16015625 C21.01355469 49.15113281 20.18726563 49.14210937 19.3359375 49.1328125 C18.69785156 49.12121094 18.05976563 49.10960937 17.40234375 49.09765625 C16.98984375 47.98390625 16.57734375 46.87015625 16.15234375 45.72265625 C14.64090492 41.67543852 13.02071748 37.67855027 11.3671875 33.6875 C10.19343451 30.53689988 9.29469081 27.33786757 8.40234375 24.09765625 C8.3772876 24.81945068 8.35223145 25.54124512 8.32641602 26.28491211 C8.21083073 29.53519125 8.08793601 32.78515313 7.96484375 36.03515625 C7.92552734 37.17146484 7.88621094 38.30777344 7.84570312 39.47851562 C7.80380859 40.55810547 7.76191406 41.63769531 7.71875 42.75 C7.66376343 44.2503479 7.66376343 44.2503479 7.60766602 45.78100586 C7.40234375 48.09765625 7.40234375 48.09765625 6.40234375 49.09765625 C4.71625409 49.16971136 3.02733716 49.18151693 1.33984375 49.16015625 C0.42074219 49.15113281 -0.49835938 49.14210937 -1.4453125 49.1328125 C-2.15558594 49.12121094 -2.86585938 49.10960937 -3.59765625 49.09765625 C-4.53715556 46.27915831 -4.72411267 44.55859235 -4.72705078 41.64208984 C-4.73020294 40.74461029 -4.7333551 39.84713074 -4.73660278 38.92245483 C-4.73457855 37.95675568 -4.73255432 36.99105652 -4.73046875 35.99609375 C-4.73142548 35.00388824 -4.7323822 34.01168274 -4.73336792 32.9894104 C-4.73404838 30.89300473 -4.73220344 28.79659694 -4.72802734 26.70019531 C-4.72266592 23.47846796 -4.72798269 20.25687932 -4.734375 17.03515625 C-4.73371442 15.00130177 -4.73243367 12.96744738 -4.73046875 10.93359375 C-4.73249298 9.96384613 -4.73451721 8.99409851 -4.73660278 7.9949646 C-4.73345062 7.10378937 -4.73029846 6.21261414 -4.72705078 5.29443359 C-4.72625519 4.50628265 -4.72545959 3.71813171 -4.72463989 2.90609741 C-4.4859996 -0.49250508 -3.51952813 0.09553551 0 0 Z " fill="#293F72" transform="translate(216.59765625,144.90234375)"/>
<path d="M0 0 C1.26392578 -0.04576172 2.52785156 -0.09152344 3.83007812 -0.13867188 C10.85892878 -0.22317975 15.56412293 0.07545355 20.99975586 4.74975586 C24.91367378 9.34423957 24.86696119 13.67914107 24.74609375 19.5234375 C24.16861977 24.97654625 21.69000102 27.35579457 17.6875 30.8125 C11.78220985 33.96720246 3.91117838 32.71727482 -2.5625 32.4375 C-2.47871094 33.07816406 -2.39492188 33.71882813 -2.30859375 34.37890625 C-1.68585395 39.66825314 -1.53932815 44.20795499 -2.5625 49.4375 C-6.1925 49.4375 -9.8225 49.4375 -13.5625 49.4375 C-14.37116273 39.36329396 -14.7223501 29.36621548 -14.69287109 19.26171875 C-14.68738536 17.01556008 -14.69292293 14.76959112 -14.69921875 12.5234375 C-14.69855991 11.09114539 -14.69728281 9.6588534 -14.6953125 8.2265625 C-14.69418457 6.94475098 -14.69305664 5.66293945 -14.69189453 4.34228516 C-14.39244543 -2.38006459 -5.23908065 0.07585289 0 0 Z M-2.5625 10.4375 C-2.5625 14.3975 -2.5625 18.3575 -2.5625 22.4375 C6.0140249 23.08787558 6.0140249 23.08787558 13.4375 19.4375 C13.1075 17.1275 12.7775 14.8175 12.4375 12.4375 C7.51115343 9.81011516 2.88149329 10.29232685 -2.5625 10.4375 Z " fill="#2D4272" transform="translate(437.5625,144.5625)"/>
<path d="M0 0 C3.63 0 7.26 0 11 0 C11.02464247 6.81762424 11.04283244 13.6352228 11.05493164 20.45288086 C11.05997333 22.77417451 11.06680651 25.09546497 11.07543945 27.41674805 C11.08751225 30.74528795 11.09322979 34.07378602 11.09765625 37.40234375 C11.10281754 38.44712387 11.10797882 39.49190399 11.11329651 40.56834412 C11.11337204 41.52926468 11.11344757 42.49018524 11.11352539 43.48022461 C11.115746 44.33071884 11.11796661 45.18121307 11.12025452 46.05747986 C11 48 11 48 10 49 C8.56419394 49.07280964 7.12499502 49.08367423 5.6875 49.0625 C4.90761719 49.05347656 4.12773438 49.04445312 3.32421875 49.03515625 C2.55722656 49.02355469 1.79023437 49.01195312 1 49 C-2.8105309 48.848991 -2.8105309 48.848991 -5.6875 49.625 C-10.01864166 50.11531792 -13.94069073 49.63110427 -18 48 C-22.95144476 43.96184161 -24.0178855 39.11995316 -25 33 C-25.15189554 26.83482804 -24.09664919 21.33905033 -21 16 C-17.30522075 12.39759023 -14.37598693 11.7383557 -9.375 11.625 C-5.31584869 11.68185086 -3.79136519 12.1043174 0 14 C0 9.38 0 4.76 0 0 Z M-13 24 C-13.63486677 26.8234234 -13.63486677 26.8234234 -13.5 29.9375 C-13.5103125 30.97777344 -13.520625 32.01804687 -13.53125 33.08984375 C-12.8807487 36.65325161 -11.89001104 37.86591712 -9 40 C-5.36760187 40.1716367 -5.36760187 40.1716367 -2 39 C0.68815731 34.95892141 0.67528412 30.68530467 0 26 C-1.48345108 22.87138661 -1.48345108 22.87138661 -4 21 C-8.01297116 20.19740577 -10.12848882 21.18232965 -13 24 Z " fill="#314674" transform="translate(527,145)"/>
<path d="M0 0 C0.33 6.93 0.66 13.86 1 21 C2.051875 19.515 3.10375 18.03 4.1875 16.5 C6.93050984 13.34183192 8.25811917 12.12942733 12.42578125 11.40234375 C15.65905688 11.43414646 18.79197136 11.60388671 22 12 C21.52590352 16.31730413 18.96603297 18.33647461 15.9375 21.25 C15.01839844 22.14203125 14.09929687 23.0340625 13.15234375 23.953125 C12.44207031 24.62859375 11.73179687 25.3040625 11 26 C11.61875 27.03125 12.2375 28.0625 12.875 29.125 C14.70698045 32.31472483 15.9635747 35.45888021 17 39 C17.66 39 18.32 39 19 39 C21.1875 41.75 21.1875 41.75 23 45 C22.61328125 47.203125 22.61328125 47.203125 22 49 C11.95727457 49.62334158 11.95727457 49.62334158 8.3125 47.25 C7 45 7 45 7 41 C6.34 41 5.68 41 5 41 C4.34 39.02 3.68 37.04 3 35 C2.01 35.495 2.01 35.495 1 36 C0.56893307 38.78336238 0.56893307 38.78336238 0.4375 42 C0.09637046 47.90362954 0.09637046 47.90362954 -1 49 C-4.63 49 -8.26 49 -12 49 C-12 32.83 -12 16.66 -12 0 C-3 -1 -3 -1 0 0 Z " fill="#304574" transform="translate(321,145)"/>
<path d="M0 0 C1.04897461 -0.05607422 1.04897461 -0.05607422 2.11914062 -0.11328125 C6.11382927 -0.18054448 8.48694279 0.2133628 11.63671875 2.7734375 C16.51762571 7.75151412 15.53140446 13.16342277 15.74511719 19.86108398 C15.81235741 21.93310614 15.89006549 24.00455636 15.96875 26.07617188 C16.01257813 27.37232422 16.05640625 28.66847656 16.1015625 30.00390625 C16.1423291 31.20088135 16.1830957 32.39785645 16.22509766 33.63110352 C16.1875 36.375 16.1875 36.375 15.1875 37.375 C13.71101124 37.47323996 12.22974583 37.50473519 10.75 37.5 C9.94691406 37.50257813 9.14382813 37.50515625 8.31640625 37.5078125 C6.1875 37.375 6.1875 37.375 4.1875 36.375 C2.393125 36.87 2.393125 36.87 0.5625 37.375 C-4.53321452 38.74621045 -8.91841713 38.45025075 -13.92578125 36.58984375 C-16.96944337 34.63005303 -17.47286764 32.11776591 -18.47265625 28.76171875 C-19.11145122 24.27546902 -17.29369316 21.37117754 -14.6328125 17.78515625 C-11.91269788 15.677943 -9.16322139 15.34717327 -5.8125 14.6875 C-4.575 14.43613281 -3.3375 14.18476563 -2.0625 13.92578125 C1.1875 13.375 1.1875 13.375 4.1875 13.375 C3.8575 12.385 3.5275 11.395 3.1875 10.375 C0.5475 10.045 -2.0925 9.715 -4.8125 9.375 C-5.1425 10.695 -5.4725 12.015 -5.8125 13.375 C-9.4425 13.375 -13.0725 13.375 -16.8125 13.375 C-16.5589147 9.06404992 -16.2279009 6.87785372 -13.4375 3.5 C-9.20046188 0.07001676 -5.23856974 0.10448643 0 0 Z M3.1875 21.375 C0.2175 22.035 -2.7525 22.695 -5.8125 23.375 C-6.1425 24.695 -6.4725 26.015 -6.8125 27.375 C-6.1525 28.035 -5.4925 28.695 -4.8125 29.375 C-1.66907817 29.17435605 0.49810954 28.84200644 3.125 27.0625 C3.475625 26.505625 3.82625 25.94875 4.1875 25.375 C3.8575 24.055 3.5275 22.735 3.1875 21.375 Z " fill="#283E6F" transform="translate(287.8125,156.625)"/>
<path d="M0 0 C1.11503906 0.00386719 2.23007812 0.00773438 3.37890625 0.01171875 C6.38837398 0.30766896 7.98590084 0.59105102 10.4375 2.3125 C12.10546875 4.40625 12.10546875 4.40625 13.625 6.8125 C14.13417969 7.6065625 14.64335937 8.400625 15.16796875 9.21875 C17.09108077 12.39040552 17.57437411 14.17621501 17.5625 17.875 C17.56636719 19.08349609 17.56636719 19.08349609 17.5703125 20.31640625 C17.4375 22.3125 17.4375 22.3125 16.4375 23.3125 C14.72977642 23.39963831 13.01851351 23.41950007 11.30859375 23.41015625 C9.75688477 23.40532227 9.75688477 23.40532227 8.17382812 23.40039062 C7.08521484 23.39201172 5.99660156 23.38363281 4.875 23.375 C3.2362793 23.36823242 3.2362793 23.36823242 1.56445312 23.36132812 C-1.14458495 23.34949826 -3.85351599 23.33301543 -6.5625 23.3125 C-4.01778578 26.32513844 -4.01778578 26.32513844 -0.4921875 27.5546875 C3.9170854 26.86507325 3.9170854 26.86507325 7.4375 24.3125 C9.6015625 24.1171875 9.6015625 24.1171875 12.0625 24.1875 C13.28839844 24.21457031 13.28839844 24.21457031 14.5390625 24.2421875 C15.47878906 24.27699219 15.47878906 24.27699219 16.4375 24.3125 C16.9325 25.3025 16.9325 25.3025 17.4375 26.3125 C16.51171875 28.2578125 16.51171875 28.2578125 15.125 30.4375 C14.67511719 31.16195312 14.22523438 31.88640625 13.76171875 32.6328125 C13.10623047 33.46425781 13.10623047 33.46425781 12.4375 34.3125 C11.7775 34.3125 11.1175 34.3125 10.4375 34.3125 C10.4375 34.9725 10.4375 35.6325 10.4375 36.3125 C-4.05723506 39.5008512 -4.05723506 39.5008512 -10.5625 36.3125 C-13.9438618 33.40196073 -16.15038277 30.54885169 -17.5625 26.3125 C-17.68343495 24.02317322 -17.73788326 21.72998676 -17.75 19.4375 C-17.76417969 18.22320312 -17.77835937 17.00890625 -17.79296875 15.7578125 C-17.57297255 12.46905579 -16.97965618 10.25884052 -15.5625 7.3125 C-14.9025 7.3125 -14.2425 7.3125 -13.5625 7.3125 C-13.335625 6.714375 -13.10875 6.11625 -12.875 5.5 C-9.86538903 0.48398172 -5.49571996 -0.08278605 0 0 Z M-5.5 10.625 C-6.74010442 12.26222228 -6.74010442 12.26222228 -6.5625 14.3125 C-2.6025 14.3125 1.3575 14.3125 5.4375 14.3125 C4.7775 12.9925 4.1175 11.6725 3.4375 10.3125 C-1.21990552 8.93095304 -1.21990552 8.93095304 -5.5 10.625 Z " fill="#24396B" transform="translate(482.5625,156.6875)"/>
<path d="M0 0 C1.06154297 -0.0309375 1.06154297 -0.0309375 2.14453125 -0.0625 C6.64713201 -0.09603893 9.64230593 0.31168184 13.125 3.25 C16.1573964 9.64746076 15.23637659 17.85687036 15.125 24.734375 C15.125 27.61359408 15.27861584 30.28325512 15.6875 33.125 C15.831875 34.15625 15.97625 35.1875 16.125 36.25 C15.125 37.25 15.125 37.25 12.98046875 37.34765625 C12.10003906 37.33605469 11.21960938 37.32445312 10.3125 37.3125 C9.43980469 37.30347656 8.56710937 37.29445312 7.66796875 37.28515625 C6.82878906 37.27355469 5.98960937 37.26195312 5.125 37.25 C2.11609662 37.25 -0.27377826 37.4561925 -3.1875 37.9375 C-7.85271209 38.45926714 -10.7908522 37.73252121 -14.875 35.25 C-17.4375 32.625 -17.4375 32.625 -18.875 29.25 C-18.81065077 24.61685543 -18.02329754 21.38802654 -14.69140625 18.0859375 C-11.52184006 16.01978478 -8.94438521 15.26435556 -5.25 14.5 C-4.12335938 14.25765625 -2.99671875 14.0153125 -1.8359375 13.765625 C1.125 13.25 1.125 13.25 4.125 13.25 C3.795 12.26 3.465 11.27 3.125 10.25 C0.485 10.25 -2.155 10.25 -4.875 10.25 C-5.205 11.24 -5.535 12.23 -5.875 13.25 C-9.505 13.25 -13.135 13.25 -16.875 13.25 C-16.47224236 7.61139301 -14.71021686 5.17653154 -10.875 1.25 C-7.21649645 0.03049882 -3.81096431 0.02746641 0 0 Z M3.125 21.25 C0.155 21.91 -2.815 22.57 -5.875 23.25 C-7.27270584 26.99691447 -7.27270584 26.99691447 -5.875 29.25 C-2.2336795 29.58102914 -0.46027075 29.67019439 2.5625 27.5 C3.078125 26.7575 3.59375 26.015 4.125 25.25 C3.795 23.93 3.465 22.61 3.125 21.25 Z " fill="#304571" transform="translate(362.875,156.75)"/>
<path d="M0 0 C1.37478516 0.01740234 1.37478516 0.01740234 2.77734375 0.03515625 C3.69644531 0.04417969 4.61554688 0.05320313 5.5625 0.0625 C6.27277344 0.07410156 6.98304688 0.08570313 7.71484375 0.09765625 C8.04484375 0.75765625 8.37484375 1.41765625 8.71484375 2.09765625 C9.70484375 1.43765625 10.69484375 0.77765625 11.71484375 0.09765625 C22.4249054 -1.37179812 22.4249054 -1.37179812 26.64453125 1.3359375 C30.32521344 5.72444318 30.84205109 9.75024172 30.84765625 15.26171875 C30.84894531 16.46570313 30.85023438 17.6696875 30.8515625 18.91015625 C30.84769531 20.16828125 30.84382813 21.42640625 30.83984375 22.72265625 C30.84564453 24.62144531 30.84564453 24.62144531 30.8515625 26.55859375 C30.85027344 27.76 30.84898437 28.96140625 30.84765625 30.19921875 C30.84652832 31.30604004 30.84540039 32.41286133 30.84423828 33.55322266 C30.71484375 36.09765625 30.71484375 36.09765625 29.71484375 37.09765625 C28.02875409 37.16971136 26.33983716 37.18151693 24.65234375 37.16015625 C23.73324219 37.15113281 22.81414062 37.14210937 21.8671875 37.1328125 C21.15691406 37.12121094 20.44664062 37.10960937 19.71484375 37.09765625 C19.6897876 36.4521582 19.66473145 35.80666016 19.63891602 35.14160156 C19.52269942 32.21009731 19.40008933 29.27889408 19.27734375 26.34765625 C19.23802734 25.331875 19.19871094 24.31609375 19.15820312 23.26953125 C19.11630859 22.28984375 19.07441406 21.31015625 19.03125 20.30078125 C18.99459229 19.40004883 18.95793457 18.49931641 18.92016602 17.57128906 C18.73177968 15.30169286 18.34117874 13.28202738 17.71484375 11.09765625 C14.42788142 10.29812487 13.00461183 10.00106689 9.71484375 11.09765625 C9.6897876 11.84974365 9.66473145 12.60183105 9.63891602 13.37670898 C9.52333861 16.76304821 9.4004403 20.14908238 9.27734375 23.53515625 C9.23802734 24.71916016 9.19871094 25.90316406 9.15820312 27.12304688 C9.11630859 28.24775391 9.07441406 29.37246094 9.03125 30.53125 C8.97626343 32.0944397 8.97626343 32.0944397 8.92016602 33.68920898 C8.71484375 36.09765625 8.71484375 36.09765625 7.71484375 37.09765625 C6.05055324 37.19589562 4.38202444 37.22739256 2.71484375 37.22265625 C1.35359375 37.22652344 1.35359375 37.22652344 -0.03515625 37.23046875 C-2.28515625 37.09765625 -2.28515625 37.09765625 -3.28515625 36.09765625 C-3.386071 33.51576179 -3.42487124 30.96119125 -3.41796875 28.37890625 C-3.41892548 27.6058313 -3.4198822 26.83275635 -3.42086792 26.03625488 C-3.42154966 24.39868081 -3.41969582 22.76110406 -3.41552734 21.12353516 C-3.41017896 18.60833704 -3.41547251 16.09331752 -3.421875 13.578125 C-3.42121422 11.99088502 -3.41993305 10.40364515 -3.41796875 8.81640625 C-3.41999298 8.05912231 -3.42201721 7.30183838 -3.42410278 6.52160645 C-3.39528272 0.14509755 -3.39528272 0.14509755 0 0 Z " fill="#2F4473" transform="translate(386.28515625,156.90234375)"/>
<path d="M0 0 C1.64574566 -0.02688151 3.29161413 -0.04634123 4.9375 -0.0625 C5.85402344 -0.07410156 6.77054688 -0.08570313 7.71484375 -0.09765625 C10 0 10 0 11 1 C11.15786308 2.85174706 11.25107356 4.7090911 11.31640625 6.56640625 C11.37924805 8.2534668 11.37924805 8.2534668 11.44335938 9.97460938 C11.48267578 11.15861328 11.52199219 12.34261719 11.5625 13.5625 C11.60568359 14.75037109 11.64886719 15.93824219 11.69335938 17.16210938 C11.79983546 20.10794784 11.90184841 23.0538743 12 26 C15.07394306 26.85709523 16.95647475 27.15444061 20 26 C21.28605661 23.42788678 21.21043941 21.43093034 21.31640625 18.5546875 C21.35830078 17.47832031 21.40019531 16.40195313 21.44335938 15.29296875 C21.48267578 14.16503906 21.52199219 13.03710938 21.5625 11.875 C21.60568359 10.73933594 21.64886719 9.60367188 21.69335938 8.43359375 C21.79965945 5.62254739 21.90035397 2.8112901 22 0 C25.63 0 29.26 0 33 0 C33.0246501 5.10863896 33.04283607 10.21724359 33.05493164 15.32592773 C33.05997204 17.06519168 33.0668043 18.80445136 33.07543945 20.54370117 C33.08751792 23.03825937 33.09323108 25.53276173 33.09765625 28.02734375 C33.10281754 28.80963852 33.10797882 29.59193329 33.11329651 30.39793396 C33.11349226 32.26567114 33.06199694 34.13329204 33 36 C32 37 32 37 30.00390625 37.1328125 C29.19824219 37.13023437 28.39257812 37.12765625 27.5625 37.125 C26.75941406 37.12757813 25.95632813 37.13015625 25.12890625 37.1328125 C23 37 23 37 21 36 C19.46876815 36.32998191 17.9488543 36.71345752 16.4375 37.125 C11.66280147 38.14369475 8.40448764 37.73183967 3.8125 36.21484375 C1.25128491 34.49816725 0.91975161 32.931115 0 30 C-0.22705078 26.6784668 -0.22705078 26.6784668 -0.1953125 22.94921875 C-0.1924826 22.29041214 -0.18965271 21.63160553 -0.18673706 20.95283508 C-0.17560924 18.86419938 -0.15051948 16.77600444 -0.125 14.6875 C-0.11496059 13.26498018 -0.10583642 11.8424536 -0.09765625 10.41992188 C-0.07569447 6.94647319 -0.04121646 3.47327967 0 0 Z " fill="#364A77" transform="translate(544,157)"/>
<path d="M0 0 C3.63 0 7.26 0 11 0 C11 15.84 11 31.68 11 48 C9 49 9 49 0 49 C0 32.83 0 16.66 0 0 Z " fill="#344979" transform="translate(583,145)"/>
<path d="M0 0 C3.3 0 6.6 0 10 0 C10.02464247 6.81762424 10.04283244 13.6352228 10.05493164 20.45288086 C10.05997333 22.77417451 10.06680651 25.09546497 10.07543945 27.41674805 C10.08751225 30.74528795 10.09322979 34.07378602 10.09765625 37.40234375 C10.10281754 38.44712387 10.10797882 39.49190399 10.11329651 40.56834412 C10.11337204 41.52926468 10.11344757 42.49018524 10.11352539 43.48022461 C10.115746 44.33071884 10.11796661 45.18121307 10.12025452 46.05747986 C10 48 10 48 9 49 C7.48071962 49.07179964 5.95832518 49.08392007 4.4375 49.0625 C3.61121094 49.05347656 2.78492188 49.04445312 1.93359375 49.03515625 C1.29550781 49.02355469 0.65742187 49.01195312 0 49 C0 48.34 0 47.68 0 47 C-1.32 46.67 -2.64 46.34 -4 46 C-4 44.68 -4 43.36 -4 42 C-3.34 42 -2.68 42 -2 42 C-1.505 39.03 -1.505 39.03 -1 36 C-0.34 36 0.32 36 1 36 C1 32.37 1 28.74 1 25 C0.01 25.33 -0.98 25.66 -2 26 C-2 24.02 -2 22.04 -2 20 C-2.99 19.67 -3.98 19.34 -5 19 C-5 18.34 -5 17.68 -5 17 C-4.34 17 -3.68 17 -3 17 C-2.67 16.34 -2.34 15.68 -2 15 C-1.34 15.33 -0.68 15.66 0 16 C0 10.72 0 5.44 0 0 Z " fill="#2D4272" transform="translate(528,145)"/>
<path d="M0 0 C4.22556002 0.14570897 6.23896242 3.10427766 9 6 C9.825 6.66 10.65 7.32 11.5 8 C16.28909804 11.83127843 20.08722414 16.30466896 24 21 C26.41996229 23.5409604 28.79616746 25.84091119 31.5625 28 C34.14477053 30.11878607 35.94890086 32.37202922 38 35 C41.4556234 38.63749832 45.11623708 41.83879762 49 45 C48.62403791 47.78211944 48.32681541 49.5879284 46.5625 51.8125 C45 53 45 53 43 53 C42.67 52.34 42.34 51.68 42 51 C41.01 50.505 41.01 50.505 40 50 C40.66 49.01 41.32 48.02 42 47 C40.80830694 43.9436083 40.80830694 43.9436083 38.19921875 42.13671875 C35.45400441 40.71778913 33.71111253 38.9031403 31.5625 36.6875 C30.76972656 35.87667969 29.97695312 35.06585938 29.16015625 34.23046875 C28.09087891 33.12638672 28.09087891 33.12638672 27 32 C26.175 31.175 25.35 30.35 24.5 29.5 C23.675 28.675 22.85 27.85 22 27 C21.24074219 26.26394531 20.48148438 25.52789062 19.69921875 24.76953125 C18.87035156 23.95871094 18.04148438 23.14789063 17.1875 22.3125 C16.39730469 21.54550781 15.60710937 20.77851563 14.79296875 19.98828125 C13 18 13 18 13 16 C12.41347656 15.74476563 11.82695312 15.48953125 11.22265625 15.2265625 C8.10048777 13.50360836 6.07362043 11.06920715 3.68359375 8.4609375 C1.99387231 6.67230129 1.99387231 6.67230129 -1 7 C-1.625 4.625 -1.625 4.625 -2 2 C-1.34 1.34 -0.68 0.68 0 0 Z " fill="#5F74A3" transform="translate(139,116)"/>
<path d="M0 0 C1.47906892 -0.02689216 2.95827483 -0.04634621 4.4375 -0.0625 C5.26121094 -0.07410156 6.08492187 -0.08570313 6.93359375 -0.09765625 C9 0 9 0 10 1 C10.10091475 3.58189446 10.13971499 6.136465 10.1328125 8.71875 C10.13376923 9.49182495 10.13472595 10.2648999 10.13571167 11.06140137 C10.13639341 12.69897544 10.13453957 14.33655219 10.13037109 15.97412109 C10.12502271 18.48931921 10.13031626 21.00433873 10.13671875 23.51953125 C10.13605797 25.10677123 10.1347768 26.6940111 10.1328125 28.28125 C10.13483673 29.03853394 10.13686096 29.79581787 10.13894653 30.5760498 C10.11495132 35.88504868 10.11495132 35.88504868 9 37 C7.1875 37.1328125 7.1875 37.1328125 5 37.125 C4.278125 37.12757813 3.55625 37.13015625 2.8125 37.1328125 C1 37 1 37 0 36 C-0.08855161 33.3337397 -0.11524673 30.69352886 -0.09765625 28.02734375 C-0.0962413 27.22970108 -0.09482635 26.43205841 -0.09336853 25.61024475 C-0.08775316 23.05262565 -0.07519812 20.49509282 -0.0625 17.9375 C-0.05748698 16.20768355 -0.05292373 14.47786574 -0.04882812 12.74804688 C-0.03777875 8.49866447 -0.02050386 4.24934688 0 0 Z " fill="#2E4374" transform="translate(600,157)"/>
<path d="M0 0 C-0.99 0.495 -0.99 0.495 -2 1 C-2 2.65 -2 4.3 -2 6 C-0.68 6.66 0.64 7.32 2 8 C-2.455 8.495 -2.455 8.495 -7 9 C-6.67 10.65 -6.34 12.3 -6 14 C-3.36 13.67 -0.72 13.34 2 13 C2 15 2 17 2 19 C2.99 19.33 3.98 19.66 5 20 C4 22 4 22 2.21484375 22.66796875 C-3.91755893 24.06695598 -9.07421381 24.46126486 -15.109375 22.21484375 C-18.15719696 20.25642923 -18.6596583 17.745147 -19.66015625 14.38671875 C-20.22796874 10.39897819 -19.05583584 8.42639307 -17 5 C-12.99409907 0.16729976 -5.98776939 -0.3863077 0 0 Z " fill="#2A4071" transform="translate(289,171)"/>
<path d="M0 0 C7.92 0 15.84 0 24 0 C24 0.33 24 0.66 24 1 C16.41 1 8.82 1 1 1 C4.30922891 5.13610855 4.30922891 5.13610855 7.0703125 5.2421875 C11.4795854 4.55257325 11.4795854 4.55257325 15 2 C17.1640625 1.8046875 17.1640625 1.8046875 19.625 1.875 C20.85089844 1.90207031 20.85089844 1.90207031 22.1015625 1.9296875 C23.04128906 1.96449219 23.04128906 1.96449219 24 2 C24.495 2.99 24.495 2.99 25 4 C24.07421875 5.9453125 24.07421875 5.9453125 22.6875 8.125 C22.23761719 8.84945312 21.78773438 9.57390625 21.32421875 10.3203125 C20.88722656 10.87460938 20.45023437 11.42890625 20 12 C19.34 12 18.68 12 18 12 C18 12.66 18 13.32 18 14 C10.73931797 15.59710434 4.04713694 17.01405042 -3 14 C-6.125 11.8125 -6.125 11.8125 -8 9 C-7.8125 5.1875 -7.8125 5.1875 -7 2 C-7.66 1.67 -8.32 1.34 -9 1 C-8.01 1 -7.02 1 -6 1 C-6.33 3.31 -6.66 5.62 -7 8 C-5.68 8 -4.36 8 -3 8 C-2.67 8.99 -2.34 9.98 -2 11 C-1.34 7.37 -0.68 3.74 0 0 Z " fill="#667797" transform="translate(475,179)"/>
<path d="M0 0 C1.32 0 2.64 0 4 0 C2.57066907 5.89979149 1.10987306 11.78875931 -0.5625 17.625 C-0.90474609 18.81996094 -0.90474609 18.81996094 -1.25390625 20.0390625 C-2 22 -2 22 -4 24 C-6.1640625 24.1953125 -6.1640625 24.1953125 -8.625 24.125 C-9.44226563 24.10695312 -10.25953125 24.08890625 -11.1015625 24.0703125 C-11.72804687 24.04710937 -12.35453125 24.02390625 -13 24 C-13.433125 22.824375 -13.86625 21.64875 -14.3125 20.4375 C-15.35396196 17.62704762 -16.48955695 14.90587487 -17.75 12.1875 C-19 9 -19 9 -18 6 C-17.34 6 -16.68 6 -16 6 C-15.01 5.34 -14.02 4.68 -13 4 C-12.34 4.33 -11.68 4.66 -11 5 C-10.34 3.68 -9.68 2.36 -9 1 C-8.67 1.66 -8.34 2.32 -8 3 C-7.01 3.33 -6.02 3.66 -5 4 C-5 4.99 -5 5.98 -5 7 C-4.01 6.67 -3.02 6.34 -2 6 C-1.67 7.32 -1.34 8.64 -1 10 C-0.34 8.02 0.32 6.04 1 4 C0.34 3.67 -0.32 3.34 -1 3 C-0.67 2.01 -0.34 1.02 0 0 Z " fill="#2E4271" transform="translate(247,170)"/>
<path d="M0 0 C1.11503906 0.00386719 2.23007812 0.00773438 3.37890625 0.01171875 C6.34506286 0.30340976 7.99246936 0.65867029 10.4375 2.3125 C12.6875 5.4375 12.6875 5.4375 14.4375 8.3125 C11.41330475 7.72446203 8.41991547 7.08571882 5.4375 6.3125 C6.4275 6.6425 7.4175 6.9725 8.4375 7.3125 C8.7675 8.3025 9.0975 9.2925 9.4375 10.3125 C8.7775 10.9725 8.1175 11.6325 7.4375 12.3125 C6.7775 11.6525 6.1175 10.9925 5.4375 10.3125 C5.1075 10.9725 4.7775 11.6325 4.4375 12.3125 C3.4475 11.6525 2.4575 10.9925 1.4375 10.3125 C-1.01991537 9.81235047 -1.01991537 9.81235047 -3.5625 10.3125 C-5.75027466 12.2500006 -5.75027466 12.2500006 -7.5625 14.3125 C-8.2225 14.3125 -8.8825 14.3125 -9.5625 14.3125 C-10.0575 14.8075 -10.5525 15.3025 -11.0625 15.8125 C-11.805 16.555 -11.805 16.555 -12.5625 17.3125 C-13.2225 17.3125 -13.8825 17.3125 -14.5625 17.3125 C-14.5625 15.3325 -14.5625 13.3525 -14.5625 11.3125 C-15.2225 11.3125 -15.8825 11.3125 -16.5625 11.3125 C-16.2325 9.9925 -15.9025 8.6725 -15.5625 7.3125 C-14.9025 7.3125 -14.2425 7.3125 -13.5625 7.3125 C-13.335625 6.714375 -13.10875 6.11625 -12.875 5.5 C-9.86538903 0.48398172 -5.49571996 -0.08278605 0 0 Z " fill="#374A75" transform="translate(482.5625,156.6875)"/>
<path d="M0 0 C0.99 1.32 1.98 2.64 3 4 C-0.4047086 8.16521052 -3.76517589 11.6567178 -8 15 C-8.99 16.2375 -8.99 16.2375 -10 17.5 C-12 20 -12 20 -14.3125 21.8125 C-16.6903579 23.74796573 -18.46320387 25.61531028 -20.4375 27.9375 C-23.39569592 31.40263188 -26.45531689 34.14884184 -30 37 C-30.928125 37.928125 -31.85625 38.85625 -32.8125 39.8125 C-33.534375 40.534375 -34.25625 41.25625 -35 42 C-35.33 42 -35.66 42 -36 42 C-36.42078059 38.14564977 -36.40613788 36.52443046 -33.98828125 33.40234375 C-33.10527344 32.58894531 -32.22226563 31.77554688 -31.3125 30.9375 C-30.44238281 30.12152344 -29.57226562 29.30554688 -28.67578125 28.46484375 C-27.79277344 27.65144531 -26.90976563 26.83804688 -26 26 C-24.32556345 24.34113961 -22.65881134 22.67448515 -21 21 C-14 14 -7 7 0 0 Z " fill="#4A6394" transform="translate(136,119)"/>
<path d="M0 0 C6.16857998 0.3701148 8.75775103 1.75775103 13 6 C15.1412784 9.33573301 15.29791171 12.13825085 15.3125 16.0625 C15.33763672 17.62677734 15.33763672 17.62677734 15.36328125 19.22265625 C15 22 15 22 12 25 C10.68 22.36 9.36 19.72 8 17 C6.68 18.32 5.36 19.64 4 21 C3.01 20.67 2.02 20.34 1 20 C1.66 19.67 2.32 19.34 3 19 C2.67 16.69 2.34 14.38 2 12 C-0.64 11.34 -3.28 10.68 -6 10 C-5 8 -5 8 -1.9375 6.875 C-0.4834375 6.441875 -0.4834375 6.441875 1 6 C0.01 4.68 -0.98 3.36 -2 2 C-1.34 2 -0.68 2 0 2 C0 1.34 0 0.68 0 0 Z " fill="#2E4372" transform="translate(447,145)"/>
<path d="M0 0 C0.9583374 0.00523682 1.9166748 0.01047363 2.90405273 0.01586914 C4.45576172 0.02070313 4.45576172 0.02070313 6.03881836 0.02563477 C7.12743164 0.03401367 8.21604492 0.04239258 9.33764648 0.05102539 C10.97636719 0.05779297 10.97636719 0.05779297 12.64819336 0.06469727 C15.35723144 0.07652713 18.06616248 0.09300996 20.77514648 0.11352539 C20.89889648 1.08290039 21.02264648 2.05227539 21.15014648 3.05102539 C21.35639648 4.06165039 21.56264648 5.07227539 21.77514648 6.11352539 C22.43514648 6.44352539 23.09514648 6.77352539 23.77514648 7.11352539 C17.87776156 9.40695286 13.1090773 10.45901253 6.77514648 10.11352539 C6.77514648 9.45352539 6.77514648 8.79352539 6.77514648 8.11352539 C5.59952148 8.85602539 5.59952148 8.85602539 4.40014648 9.61352539 C1.77514648 11.11352539 1.77514648 11.11352539 -0.22485352 11.11352539 C-0.55485352 11.77352539 -0.88485352 12.43352539 -1.22485352 13.11352539 C-2.42989675 10.70343893 -2.58009798 8.72931251 -2.84985352 6.05102539 C-2.99293945 4.70331055 -2.99293945 4.70331055 -3.13891602 3.32836914 C-3.16727539 2.5974707 -3.19563477 1.86657227 -3.22485352 1.11352539 C-2.22485352 0.11352539 -2.22485352 0.11352539 0 0 Z " fill="#243969" transform="translate(426.224853515625,144.886474609375)"/>
<path d="M0 0 C2.1640625 -0.29296875 2.1640625 -0.29296875 4.625 -0.1875 C5.44226563 -0.16042969 6.25953125 -0.13335937 7.1015625 -0.10546875 C8.04128906 -0.05326172 8.04128906 -0.05326172 9 0 C9.33 0.66 9.66 1.32 10 2 C8.35 2.33 6.7 2.66 5 3 C4.67 6.3 4.34 9.6 4 13 C5.98 13 7.96 13 10 13 C6.55384615 17.8 6.55384615 17.8 3.75 18.8125 C2.88375 18.9053125 2.88375 18.9053125 2 19 C2 18.34 2 17.68 2 17 C0.02 17.66 -1.96 18.32 -4 19 C-6.88402058 15.74384773 -8.78441364 13.41952037 -9 9 C-8.0625 5.6875 -8.0625 5.6875 -7 3 C-6.21625 3.061875 -5.4325 3.12375 -4.625 3.1875 C-3.75875 3.125625 -2.8925 3.06375 -2 3 C-1.34 2.01 -0.68 1.02 0 0 Z " fill="#293E70" transform="translate(353,174)"/>
<path d="M0 0 C3 2 3 2 3.6875 4.625 C3.790625 5.40875 3.89375 6.1925 4 7 C4.66 7 5.32 7 6 7 C8.1875 9.75 8.1875 9.75 10 13 C9.61328125 15.203125 9.61328125 15.203125 9 17 C-1.04272543 17.62334158 -1.04272543 17.62334158 -4.6875 15.25 C-6 13 -6 13 -6 9 C-6.66 9 -7.32 9 -8 9 C-8.33 8.01 -8.66 7.02 -9 6 C-6.01758453 5.22678118 -3.02419525 4.58803797 0 4 C0 2.68 0 1.36 0 0 Z " fill="#374B7A" transform="translate(334,177)"/>
<path d="M0 0 C9.1 2.1 9.1 2.1 12.125 5.125 C13.34135704 9.1216017 13.24374096 12.85640374 13 17 C12.34 16.34 11.68 15.68 11 15 C9.65713868 15.29259593 8.3255762 15.63704461 7 16 C4.75092848 16.06790675 2.49998395 16.08499984 0.25 16.0625 C-0.92046875 16.05347656 -2.0909375 16.04445312 -3.296875 16.03515625 C-4.18890625 16.02355469 -5.0809375 16.01195312 -6 16 C-5.01 15.34 -4.02 14.68 -3 14 C-3.33 13.01 -3.66 12.02 -4 11 C-2.35 10.67 -0.7 10.34 1 10 C0.67 8.02 0.34 6.04 0 4 C1.32 4.33 2.64 4.66 4 5 C3.67 4.34 3.34 3.68 3 3 C2.01 2.67 1.02 2.34 0 2 C0 1.34 0 0.68 0 0 Z " fill="#2C4172" transform="translate(487,162)"/>
<path d="M0 0 C0 0.66 0 1.32 0 2 C0.66 2 1.32 2 2 2 C0.25 6.875 0.25 6.875 -2 8 C0.64 8 3.28 8 6 8 C6 8.33 6 8.66 6 9 C3.36 9 0.72 9 -2 9 C-2.33 10.32 -2.66 11.64 -3 13 C-6.63 13 -10.26 13 -14 13 C-13.7464147 8.68904992 -13.4154009 6.50285372 -10.625 3.125 C-7.01159331 0.19986125 -4.51552087 -0.1220411 0 0 Z " fill="#3E507B" transform="translate(285,157)"/>
<path d="M0 0 C1.79244141 0.01740234 1.79244141 0.01740234 3.62109375 0.03515625 C5.41740234 0.04869141 5.41740234 0.04869141 7.25 0.0625 C8.17683594 0.07410156 9.10367187 0.08570313 10.05859375 0.09765625 C9.55269355 4.33333049 7.16506095 6.4569991 4.24609375 9.41015625 C3.37339844 10.31378906 2.50070312 11.21742188 1.6015625 12.1484375 C-0.94140625 14.09765625 -0.94140625 14.09765625 -3.265625 13.890625 C-3.81863281 13.62894531 -4.37164062 13.36726562 -4.94140625 13.09765625 C-4.61140625 11.44765625 -4.28140625 9.79765625 -3.94140625 8.09765625 C-5.26140625 8.42765625 -6.58140625 8.75765625 -7.94140625 9.09765625 C-7.29802145 7.78395425 -6.6516241 6.47172727 -6.00390625 5.16015625 C-5.64425781 4.42925781 -5.28460938 3.69835937 -4.9140625 2.9453125 C-3.42340337 0.11365881 -3.42340337 0.11365881 0 0 Z " fill="#233B69" transform="translate(332.94140625,156.90234375)"/>
<path d="M0 0 C1.89492188 0.01353516 1.89492188 0.01353516 3.828125 0.02734375 C4.79234375 0.03894531 5.7565625 0.05054688 6.75 0.0625 C6.42 1.7125 6.09 3.3625 5.75 5.0625 C6.74 5.3925 7.73 5.7225 8.75 6.0625 C7.76 6.3925 6.77 6.7225 5.75 7.0625 C5.75 7.7225 5.75 8.3825 5.75 9.0625 C0.88947556 10.58141389 -2.53425116 9.63441628 -7.25 8.0625 C-7.58 7.0725 -7.91 6.0825 -8.25 5.0625 C-10.25016466 3.85367904 -10.25016466 3.85367904 -12.25 3.0625 C-11.25 1.0625 -11.25 1.0625 -9.640625 0.44140625 C-6.40648557 -0.07119428 -3.27272949 -0.03030305 0 0 Z " fill="#223A70" transform="translate(559.25,183.9375)"/>
<path d="M0 0 C0.33 0 0.66 0 1 0 C1 2.64 1 5.28 1 8 C0.01 8 -0.98 8 -2 8 C-1.649375 8.61875 -1.29875 9.2375 -0.9375 9.875 C-0.4734375 10.926875 -0.4734375 10.926875 0 12 C-0.33 12.66 -0.66 13.32 -1 14 C-0.01 14 0.98 14 2 14 C2 14.66 2 15.32 2 16 C6.12973628 15.43260132 6.12973628 15.43260132 10 14 C10 12.35 10 10.7 10 9 C10.33 9 10.66 9 11 9 C11.38063221 11.3260857 11.71269945 13.66055264 12 16 C11 17 11 17 8.85546875 17.09765625 C7.97503906 17.08605469 7.09460938 17.07445312 6.1875 17.0625 C5.31480469 17.05347656 4.44210937 17.04445312 3.54296875 17.03515625 C2.70378906 17.02355469 1.86460937 17.01195312 1 17 C-1.99791061 17 -4.51263632 17.18905845 -7.4375 17.625 C-11.1829918 18.07618961 -13.61143057 17.85824775 -17 16 C-14 14 -14 14 -12 14 C-12 14.66 -12 15.32 -12 16 C-11.21625 15.360625 -10.4325 14.72125 -9.625 14.0625 C-7 12 -7 12 -5 11 C-6.65 10.67 -8.3 10.34 -10 10 C-10 9.67 -10 9.34 -10 9 C-7.03 8.34 -4.06 7.68 -1 7 C-0.67 4.69 -0.34 2.38 0 0 Z " fill="#4A5C84" transform="translate(367,177)"/>
<path d="M0 0 C3.15473719 0.35052635 4.8233534 0.86519076 7.375 2.8125 C9 5 9 5 9 7.0625 C7.68535802 9.60961883 6.53843803 10.66026882 4 12 C1.0964021 11.85836108 -0.49720384 11.35195731 -2.875 9.6875 C-4 8 -4 8 -3.875 6.0625 C-2.88420853 3.72706297 -1.6060189 1.95515344 0 0 Z " fill="#58709F" transform="translate(138,157)"/>
<path d="M0 0 C2.97 0 5.94 0 9 0 C10 1 10 1 10.12025452 2.86659241 C10.1169236 4.08903908 10.1169236 4.08903908 10.11352539 5.33618164 C10.11344986 6.2570607 10.11337433 7.17793976 10.11329651 8.12672424 C10.10813522 9.12775681 10.10297394 10.12878937 10.09765625 11.16015625 C10.0962413 12.17975937 10.09482635 13.19936249 10.09336853 14.24986267 C10.08775097 17.52077107 10.0751955 20.79161213 10.0625 24.0625 C10.05748726 26.27408756 10.05292396 28.48567618 10.04882812 30.69726562 C10.03777584 36.13153357 10.02102063 41.56576197 10 47 C9.67 47 9.34 47 9 47 C9 32.15 9 17.3 9 2 C8.01 2.33 7.02 2.66 6 3 C4.35 2.67 2.7 2.34 1 2 C1 14.87 1 27.74 1 41 C0.67 41 0.34 41 0 41 C0 27.47 0 13.94 0 0 Z " fill="#27395E" transform="translate(583,145)"/>
<path d="M0 0 C0.33 0 0.66 0 1 0 C1 11.22 1 22.44 1 34 C5.455 33.505 5.455 33.505 10 33 C9.90460938 31.73542969 9.80921875 30.47085938 9.7109375 29.16796875 C9.59838715 27.50785113 9.48643932 25.84769258 9.375 24.1875 C9.27832031 22.93743164 9.27832031 22.93743164 9.1796875 21.66210938 C9.128125 20.85966797 9.0765625 20.05722656 9.0234375 19.23046875 C8.97106934 18.49207764 8.91870117 17.75368652 8.86474609 16.99291992 C9 15 9 15 11 12 C12.65394117 13.65394117 12.12999683 15.60315413 12.1328125 17.875 C12.13474609 19.35226563 12.13474609 19.35226563 12.13671875 20.859375 C12.13285156 21.89578125 12.12898438 22.9321875 12.125 24 C12.12886719 25.03640625 12.13273437 26.0728125 12.13671875 27.140625 C12.13542969 28.12546875 12.13414062 29.1103125 12.1328125 30.125 C12.13168457 31.03507812 12.13055664 31.94515625 12.12939453 32.8828125 C12 35 12 35 11 36 C9.33570949 36.09823937 7.66718069 36.12973631 6 36.125 C4.63875 36.12886719 4.63875 36.12886719 3.25 36.1328125 C1 36 1 36 0 35 C-0.08851529 32.40640678 -0.11525945 29.83960309 -0.09765625 27.24609375 C-0.09553383 26.08292381 -0.09553383 26.08292381 -0.09336853 24.89625549 C-0.08775345 22.40996506 -0.07519846 19.9237634 -0.0625 17.4375 C-0.05748694 15.75586067 -0.0529237 14.07421994 -0.04882812 12.39257812 C-0.03777913 8.26168434 -0.02050445 4.13085724 0 0 Z " fill="#5A6A8D" transform="translate(383,158)"/>
<path d="M0 0 C3.3 0 6.6 0 10 0 C10.09765625 6.93359375 10.09765625 6.93359375 10 9 C9 10 9 10 6.93359375 10.09765625 C3.46679688 10.04882812 3.46679688 10.04882812 0 10 C0 6.7 0 3.4 0 0 Z " fill="#54648D" transform="translate(600,145)"/>
<path d="M0 0 C0.0825 0.61875 0.165 1.2375 0.25 1.875 C0.79278299 4.15354435 0.79278299 4.15354435 2.875 5.0625 C3.926875 5.5265625 3.926875 5.5265625 5 6 C6.8125 7.3125 6.8125 7.3125 8 9 C7.85566885 11.88662291 7.48935877 13.44681182 5.5625 15.625 C4.7890625 16.305625 4.7890625 16.305625 4 17 C3.34 17.99 2.68 18.98 2 20 C0.35 19.01 -1.3 18.02 -3 17 C-1.84826645 14.53199953 -0.95216435 12.95216435 1 11 C1.6425235 8.93125966 1.6425235 8.93125966 2 7 C1.01 6.67 0.02 6.34 -1 6 C-1.8125 4.0625 -1.8125 4.0625 -2 2 C-1.34 1.34 -0.68 0.68 0 0 Z " fill="#3E548D" transform="translate(97,160)"/>
<path d="M0 0 C2.05078125 0.03255208 4.1015625 0.06510417 6.15234375 0.09765625 C5.41997789 4.45380641 3.37965809 6.31717652 0.046875 9.0390625 C-1.84765625 10.09765625 -1.84765625 10.09765625 -4.84765625 9.41015625 C-5.83765625 8.97703125 -6.82765625 8.54390625 -7.84765625 8.09765625 C-11.61508404 8.39656859 -11.61508404 8.39656859 -14.84765625 9.09765625 C-14.18765625 7.77765625 -13.52765625 6.45765625 -12.84765625 5.09765625 C-11.76484375 5.22140625 -11.76484375 5.22140625 -10.66015625 5.34765625 C-5.95144933 4.92910452 -4.20692702 0.22235344 0 0 Z " fill="#273C6E" transform="translate(490.84765625,181.90234375)"/>
<path d="M0 0 C2.97 0 5.94 0 9 0 C9.33 0.66 9.66 1.32 10 2 C9.07421875 3.9453125 9.07421875 3.9453125 7.6875 6.125 C7.23761719 6.84945312 6.78773438 7.57390625 6.32421875 8.3203125 C5.88722656 8.87460938 5.45023437 9.42890625 5 10 C4.34 10 3.68 10 3 10 C3 10.66 3 11.32 3 12 C1.10630916 12.36544911 -0.79008782 12.71689175 -2.6875 13.0625 C-3.74324219 13.25972656 -4.79898437 13.45695313 -5.88671875 13.66015625 C-8.91159216 13.99034946 -11.07980511 13.77474558 -14 13 C-13.67 12.01 -13.34 11.02 -13 10 C-7.79245283 7.73584906 -7.79245283 7.73584906 -4 9 C-2.68 9 -1.36 9 0 9 C0.66 9 1.32 9 2 9 C2.28875 8.360625 2.5775 7.72125 2.875 7.0625 C4 5 4 5 6 4 C6.33 3.01 6.66 2.02 7 1 C4.69 1 2.38 1 0 1 C0 0.67 0 0.34 0 0 Z " fill="#3E537C" transform="translate(490,181)"/>
<path d="M0 0 C0.66 0 1.32 0 2 0 C2.55353075 11.52164009 2.55353075 11.52164009 -1 17 C-3 16 -3 16 -4 14 C-3.34 14 -2.68 14 -2 14 C-1.34 9.38 -0.68 4.76 0 0 Z M-8 17 C-6.35 17 -4.7 17 -3 17 C-2.87625 17.61875 -2.7525 18.2375 -2.625 18.875 C-2.12802644 21.19120832 -2.12802644 21.19120832 0 23 C-5.30723432 24.42705634 -9.53891111 25.4002792 -15 24 C-10.25 19.125 -10.25 19.125 -8 18 C-8 17.67 -8 17.34 -8 17 Z " fill="#344A78" transform="translate(527,170)"/>
<path d="M0 0 C0.33 0 0.66 0 1 0 C1 5.28 1 10.56 1 16 C-0.65 16.33 -2.3 16.66 -4 17 C-2.15811388 19.05270463 -2.15811388 19.05270463 0 20 C-0.33 21.32 -0.66 22.64 -1 24 C-1.99 23.34 -2.98 22.68 -4 22 C-5.65549531 21.61500109 -7.3222433 21.27206865 -9 21 C-8.01 20.34 -7.02 19.68 -6 19 C-7.32 18.34 -8.64 17.68 -10 17 C-9.34 16.34 -8.68 15.68 -8 15 C-11.69541586 14.04975021 -14.30458414 14.04975021 -18 15 C-16.2147863 12.72189902 -15.35802152 12.05083359 -12.44140625 11.63671875 C-11.01634766 11.66185547 -11.01634766 11.66185547 -9.5625 11.6875 C-8.61503906 11.69136719 -7.66757812 11.69523438 -6.69140625 11.69921875 C-4 12 -4 12 0 14 C0 9.38 0 4.76 0 0 Z " fill="#55668B" transform="translate(527,145)"/>
<path d="M0 0 C0.99 0 1.98 0 3 0 C3 1.32 3 2.64 3 4 C4.32 4.33 5.64 4.66 7 5 C6.6875 6.9375 6.6875 6.9375 6 9 C5.01 9.33 4.02 9.66 3 10 C2.34 10.66 1.68 11.32 1 12 C-0.8125 11.75 -0.8125 11.75 -3 11 C-3.86625 10.731875 -4.7325 10.46375 -5.625 10.1875 C-8.36660493 8.81669754 -8.96414958 7.82504659 -10 5 C-8.8553125 5.2475 -8.8553125 5.2475 -7.6875 5.5 C-4.96403764 6.09145396 -4.96403764 6.09145396 -2 6 C-1.34 4.02 -0.68 2.04 0 0 Z " fill="#405D9A" transform="translate(115,182)"/>
<path d="M0 0 C3.20863349 -0.35651483 4.64001006 -0.23683549 7.375 1.5625 C9 4 9 4 8.75 7.75 C8.5025 8.8225 8.255 9.895 8 11 C5.98177083 10.70703125 3.96354167 10.4140625 1.9453125 10.12109375 C-0.08140667 9.8315703 -0.08140667 9.8315703 -2 11 C-2.66 10.34 -3.32 9.68 -4 9 C-3.34 9 -2.68 9 -2 9 C-1.34 6.69 -0.68 4.38 0 2 C1.32 1.67 2.64 1.34 4 1 C2.68 0.67 1.36 0.34 0 0 Z " fill="#3D507F" transform="translate(406,157)"/>
<path d="M0 0 C6.14689273 0.36881356 8.69027374 1.90050429 13 6 C12.67 6.66 12.34 7.32 12 8 C10.02 7.01 8.04 6.02 6 5 C6 5.66 6 6.32 6 7 C5.360625 7.103125 4.72125 7.20625 4.0625 7.3125 C3.381875 7.539375 2.70125 7.76625 2 8 C1.67 8.99 1.34 9.98 1 11 C-1.31 10.67 -3.62 10.34 -6 10 C-5 8 -5 8 -1.9375 6.875 C-0.4834375 6.441875 -0.4834375 6.441875 1 6 C0.01 4.68 -0.98 3.36 -2 2 C-1.34 2 -0.68 2 0 2 C0 1.34 0 0.68 0 0 Z " fill="#505D81" transform="translate(447,145)"/>
<path d="M0 0 C0.33 0.66 0.66 1.32 1 2 C1.66 2 2.32 2 3 2 C3.33 1.34 3.66 0.68 4 0 C4.66 0.33 5.32 0.66 6 1 C6 1.66 6 2.32 6 3 C6.66 3 7.32 3 8 3 C8 4.98 8 6.96 8 9 C5.36 9 2.72 9 0 9 C0 8.34 0 7.68 0 7 C-0.99 7 -1.98 7 -3 7 C-1.125 1.125 -1.125 1.125 0 0 Z " fill="#243A6A" transform="translate(369,184)"/>
<path d="M0 0 C0.33 0 0.66 0 1 0 C1.33 5.28 1.66 10.56 2 16 C1.34 16.33 0.68 16.66 0 17 C-0.33 13.37 -0.66 9.74 -1 6 C-2.65 6 -4.3 6 -6 6 C-6.99 7.485 -6.99 7.485 -8 9 C-9.4606285 6.35261084 -10 5.10551666 -10 2 C-9.04287109 1.90912109 -9.04287109 1.90912109 -8.06640625 1.81640625 C-6.82697266 1.69072266 -6.82697266 1.69072266 -5.5625 1.5625 C-4.73878906 1.48128906 -3.91507812 1.40007812 -3.06640625 1.31640625 C-1.01337975 1.21069185 -1.01337975 1.21069185 0 0 Z " fill="#283A61" transform="translate(376,162)"/>
<path d="M0 0 C-0.33 0.66 -0.66 1.32 -1 2 C-1.99 1.67 -2.98 1.34 -4 1 C-3.67 1.99 -3.34 2.98 -3 4 C-3.66 4 -4.32 4 -5 4 C-5.33 5.32 -5.66 6.64 -6 8 C-10.455 8.495 -10.455 8.495 -15 9 C-14.24088921 7.51478323 -13.46728766 6.03696575 -12.6875 4.5625 C-12.04361328 3.32693359 -12.04361328 3.32693359 -11.38671875 2.06640625 C-8.47825652 -2.26761211 -4.54416067 -0.77164992 0 0 Z " fill="#253967" transform="translate(410,158)"/>
<path d="M0 0 C0.66 0.33 1.32 0.66 2 1 C2 1.66 2 2.32 2 3 C2.99 3.33 3.98 3.66 5 4 C2.14723863 6.93200474 -0.65079784 9.64315404 -4 12 C-4 11.34 -4 10.68 -4 10 C-4.99 9.67 -5.98 9.34 -7 9 C-5.03681826 5.46627288 -2.95929119 2.75520215 0 0 Z " fill="#5971A5" transform="translate(152,178)"/>
<path d="M0 0 C4.75034063 1.09623245 8.09349211 1.93088895 11 6 C11.25 8.75 11.25 8.75 11 11 C11.66 11.33 12.32 11.66 13 12 C12.01 12.33 11.02 12.66 10 13 C8.62437146 11.71034824 7.29233607 10.37310707 6 9 C6 8.34 6 7.68 6 7 C5.38125 6.71125 4.7625 6.4225 4.125 6.125 C2 5 2 5 0 3 C0 2.01 0 1.02 0 0 Z " fill="#4F6599" transform="translate(146,125)"/>
<path d="M0 0 C5.625 -0.25 5.625 -0.25 9 2 C8.67 3.32 8.34 4.64 8 6 C5.03 6 2.06 6 -1 6 C-1 6.66 -1 7.32 -1 8 C-3.64 8 -6.28 8 -9 8 C-9 7.67 -9 7.34 -9 7 C-8.071875 6.95875 -7.14375 6.9175 -6.1875 6.875 C-2.71052362 6.31140969 -2.71052362 6.31140969 -1.125 2.9375 C-0.75375 1.968125 -0.3825 0.99875 0 0 Z " fill="#40537E" transform="translate(367,158)"/>
<path d="M0 0 C0.66 0 1.32 0 2 0 C2 0.66 2 1.32 2 2 C2.66 2.33 3.32 2.66 4 3 C3.34 3 2.68 3 2 3 C2 11.58 2 20.16 2 29 C1.34 29 0.68 29 0 29 C0 19.43 0 9.86 0 0 Z " fill="#1A335F" transform="translate(600,162)"/>
<path d="M0 0 C0 2.31 0 4.62 0 7 C-0.99 7.495 -0.99 7.495 -2 8 C-2.33 7.01 -2.66 6.02 -3 5 C-3.33 5.99 -3.66 6.98 -4 8 C-3.484375 8.391875 -2.96875 8.78375 -2.4375 9.1875 C-1 11 -1 11 -1.125 13.5 C-2.03509071 16.10025916 -2.90126765 17.26626458 -5 19 C-4.34 20.65 -3.68 22.3 -3 24 C-4.32 23.34 -5.64 22.68 -7 22 C-6.49701212 17.59885603 -4.91227269 15.28804981 -2 12 C-2.639375 11.7525 -3.27875 11.505 -3.9375 11.25 C-6 10 -6 10 -6.80859375 8.125 C-7 6 -7 6 -5.8203125 4.296875 C-5.26085937 3.78640625 -4.70140625 3.2759375 -4.125 2.75 C-3.57070312 2.22921875 -3.01640625 1.7084375 -2.4453125 1.171875 C-1 0 -1 0 0 0 Z " fill="#7A88B2" transform="translate(100,156)"/>
<path d="M0 0 C1.32 0.66 2.64 1.32 4 2 C3.67 2.66 3.34 3.32 3 4 C4.32 3.67 5.64 3.34 7 3 C7 4.32 7 5.64 7 7 C6.21625 7.28875 5.4325 7.5775 4.625 7.875 C1.90328368 8.84912254 1.90328368 8.84912254 0 11 C0 10.34 0 9.68 0 9 C-0.99 8.67 -1.98 8.34 -3 8 C-1.125 1.125 -1.125 1.125 0 0 Z " fill="#263D6D" transform="translate(327,174)"/>
<path d="M0 0 C1.65 0 3.3 0 5 0 C4.01 0.495 4.01 0.495 3 1 C3 2.65 3 4.3 3 6 C4.32 6.66 5.64 7.32 7 8 C2.545 8.495 2.545 8.495 -2 9 C-1.67 10.65 -1.34 12.3 -1 14 C0.98 14 2.96 14 5 14 C4.67 14.66 4.34 15.32 4 16 C1.125 16.125 1.125 16.125 -2 16 C-4 14 -4 14 -4.125 10.875 C-4.08375 9.92625 -4.0425 8.9775 -4 8 C-3.01 7.67 -2.02 7.34 -1 7 C-0.26676204 4.98491642 -0.26676204 4.98491642 0 3 C0.66 3 1.32 3 2 3 C2 2.34 2 1.68 2 1 C1.34 0.67 0.68 0.34 0 0 Z " fill="#4A5C84" transform="translate(284,171)"/>
<path d="M0 0 C0 0.66 0 1.32 0 2 C-0.66 2 -1.32 2 -2 2 C-2.1546875 2.9590625 -2.1546875 2.9590625 -2.3125 3.9375 C-2.539375 4.618125 -2.76625 5.29875 -3 6 C-3.99 6.33 -4.98 6.66 -6 7 C-6 6.01 -6 5.02 -6 4 C-8.64 4.66 -11.28 5.32 -14 6 C-13.0114653 3.30399627 -12.34022364 2.19441351 -9.8125 0.75 C-6.45769347 -0.14461507 -3.45702902 -0.13556977 0 0 Z " fill="#324473" transform="translate(286,172)"/>
<path d="M0 0 C0.99 0.66 1.98 1.32 3 2 C2.67 4.31 2.34 6.62 2 9 C0.02 9 -1.96 9 -4 9 C-4.66 7.35 -5.32 5.7 -6 4 C-4.7934375 3.566875 -4.7934375 3.566875 -3.5625 3.125 C-0.8673532 2.26737432 -0.8673532 2.26737432 0 0 Z " fill="#233A6D" transform="translate(241,183)"/>
<path d="M0 0 C2.97 0.495 2.97 0.495 6 1 C6.33 2.32 6.66 3.64 7 5 C9.64 5.33 12.28 5.66 15 6 C14.34 6.66 13.68 7.32 13 8 C10.46875 7.828125 10.46875 7.828125 7.5 7.25 C6.5203125 7.06953125 5.540625 6.8890625 4.53125 6.703125 C2 6 2 6 0 4 C0 2.68 0 1.36 0 0 Z " fill="#546687" transform="translate(545,187)"/>
<path d="M0 0 C1.8125 0.125 1.8125 0.125 4 1 C7 6.03571429 7 6.03571429 7 9 C5.02 9.66 3.04 10.32 1 11 C1 10.34 1 9.68 1 9 C0.34 9 -0.32 9 -1 9 C-0.37240135 6.07120629 0.58622659 3.63904371 2 1 C1.34 0.67 0.68 0.34 0 0 Z " fill="#233A6E" transform="translate(452,161)"/>
<path d="M0 0 C1.65 0.99 3.3 1.98 5 3 C3.84826645 5.46800047 2.95216435 7.04783565 1 9 C0.01 10.485 0.01 10.485 -1 12 C-1.99 11.67 -2.98 11.34 -4 11 C-3.25 6.25 -3.25 6.25 -1 4 C-0.3574765 1.93125966 -0.3574765 1.93125966 0 0 Z " fill="#3F5C9B" transform="translate(100,168)"/>
<path d="M0 0 C-0.99 1.485 -0.99 1.485 -2 3 C-0.68 3.66 0.64 4.32 2 5 C-1.75 7 -1.75 7 -4 7 C-4 6.34 -4 5.68 -4 5 C-4.66 5 -5.32 5 -6 5 C-6 4.34 -6 3.68 -6 3 C-6.99 3.33 -7.98 3.66 -9 4 C-9 3.34 -9 2.68 -9 2 C-9.66 1.67 -10.32 1.34 -11 1 C-6.92630576 -1.03684712 -4.41062136 -1.0257259 0 0 Z " fill="#24396A" transform="translate(520,159)"/>
<path d="M0 0 C2.97 0 5.94 0 9 0 C8.34 1.32 7.68 2.64 7 4 C6.01 4.33 5.02 4.66 4 5 C3.34 4.67 2.68 4.34 2 4 C2.7763932 7.0745356 2.7763932 7.0745356 5 9 C3.35 8.67 1.7 8.34 0 8 C0 5.36 0 2.72 0 0 Z " fill="#253762" transform="translate(600,145)"/>
<path d="M0 0 C0.33 0.66 0.66 1.32 1 2 C0.67 2.99 0.34 3.98 0 5 C0.99 5.33 1.98 5.66 3 6 C0 8 0 8 -3 8 C-3 7.34 -3 6.68 -3 6 C-3.66 6 -4.32 6 -5 6 C-5.33 5.01 -5.66 4.02 -6 3 C-8.01508358 2.26676204 -8.01508358 2.26676204 -10 2 C-10 1.67 -10 1.34 -10 1 C-6.7 0.67 -3.4 0.34 0 0 Z " fill="#233764" transform="translate(565,184)"/>
<path d="M0 0 C1.98 0 3.96 0 6 0 C6 0.66 6 1.32 6 2 C5.34 2 4.68 2 4 2 C4.66868314 5.11332248 4.66868314 5.11332248 7.0625 6.1875 C7.701875 6.455625 8.34125 6.72375 9 7 C8.67 7.66 8.34 8.32 8 9 C4.7 8.67 1.4 8.34 -2 8 C-0.89131683 5.78263366 0.49440461 3.96382007 2 2 C1.34 2 0.68 2 0 2 C0 1.34 0 0.68 0 0 Z " fill="#223764" transform="translate(285,157)"/>
<path d="M0 0 C0.33 0 0.66 0 1 0 C1 2.64 1 5.28 1 8 C-7.58 8.33 -16.16 8.66 -25 9 C-24.67 7.68 -24.34 6.36 -24 5 C-23.01 5.33 -22.02 5.66 -21 6 C-19.37280518 6.08143855 -17.74248281 6.1075302 -16.11328125 6.09765625 C-15.17548828 6.09443359 -14.23769531 6.09121094 -13.27148438 6.08789062 C-12.29501953 6.07951172 -11.31855469 6.07113281 -10.3125 6.0625 C-9.32443359 6.05798828 -8.33636719 6.05347656 -7.31835938 6.04882812 C-4.87884526 6.03704303 -2.43945311 6.02059011 0 6 C0 4.02 0 2.04 0 0 Z " fill="#26395C" transform="translate(498,171)"/>
<path d="M0 0 C0.99 0.33 1.98 0.66 3 1 C3 1.66 3 2.32 3 3 C3.33 2.34 3.66 1.68 4 1 C4.66 1.33 5.32 1.66 6 2 C5.67 3.65 5.34 5.3 5 7 C3.35 7.33 1.7 7.66 0 8 C-0.66 6.02 -1.32 4.04 -2 2 C-1.34 1.34 -0.68 0.68 0 0 Z " fill="#466098" transform="translate(138,161)"/>
<path d="M0 0 C-2.45251778 3.67877667 -3.85741343 3.78159219 -8 5 C-9.299375 5.6496875 -9.299375 5.6496875 -10.625 6.3125 C-11.800625 6.6528125 -11.800625 6.6528125 -13 7 C-15.3125 5.625 -15.3125 5.625 -17 4 C-13.535 3.505 -13.535 3.505 -10 3 C-9.67 2.01 -9.34 1.02 -9 0 C-2.25 -1.125 -2.25 -1.125 0 0 Z " fill="#233765" transform="translate(525,186)"/>
<path d="M0 0 C0 3.51700839 -0.69225467 4.36436147 -2.75 7.125 C-3.26046875 7.82882813 -3.7709375 8.53265625 -4.296875 9.2578125 C-6.19467845 11.19914355 -7.35107221 11.61993645 -10 12 C-10 12.99 -10 13.98 -10 15 C-11.32 14.67 -12.64 14.34 -14 14 C-11.03750349 9.92656729 -7.61640648 6.79433834 -3.8046875 3.55078125 C-1.92288746 1.97318991 -1.92288746 1.97318991 0 0 Z " fill="#5B729A" transform="translate(170,175)"/>
<path d="M0 0 C1.17175781 0.04640625 2.34351563 0.0928125 3.55078125 0.140625 C5.32001953 0.19476563 5.32001953 0.19476563 7.125 0.25 C8.48044922 0.31960937 8.48044922 0.31960937 9.86328125 0.390625 C9.05424022 5.18342502 6.60343534 6.52582613 2.86328125 9.390625 C2.86328125 8.400625 2.86328125 7.410625 2.86328125 6.390625 C3.52328125 6.390625 4.18328125 6.390625 4.86328125 6.390625 C5.19328125 4.740625 5.52328125 3.090625 5.86328125 1.390625 C4.58453125 1.49375 3.30578125 1.596875 1.98828125 1.703125 C1.26898438 1.76113281 0.5496875 1.81914062 -0.19140625 1.87890625 C-2.53191091 2.26455536 -2.53191091 2.26455536 -4.13671875 5.390625 C-4.79671875 5.060625 -5.45671875 4.730625 -6.13671875 4.390625 C-4.39021305 1.18764703 -3.70818582 0.46179151 0 0 Z " fill="#75899D" transform="translate(333.13671875,156.609375)"/>
<path d="M0 0 C1.9375 0.3125 1.9375 0.3125 4 1 C4.33 1.99 4.66 2.98 5 4 C4.01 4.33 3.02 4.66 2 5 C1.67 5.99 1.34 6.98 1 8 C0.01 8 -0.98 8 -2 8 C-2 7.34 -2 6.68 -2 6 C-2.99 5.67 -3.98 5.34 -5 5 C-3.625 3.5 -3.625 3.5 -2 2 C-1.34 2 -0.68 2 0 2 C0 1.34 0 0.68 0 0 Z " fill="#223A6C" transform="translate(453,150)"/>
<path d="M0 0 C3.33333333 3.33333333 6.66666667 6.66666667 10 10 C7 10 7 10 5 9 C4.67 9.99 4.34 10.98 4 12 C2.4375 10.8125 2.4375 10.8125 1 9 C1.3125 6.3125 1.3125 6.3125 2 4 C1.34 4 0.68 4 0 4 C0 2.68 0 1.36 0 0 Z " fill="#6476A6" transform="translate(170,144)"/>
<path d="M0 0 C2 1.375 2 1.375 4 3 C4 3.66 4 4.32 4 5 C4.598125 5.226875 5.19625 5.45375 5.8125 5.6875 C8.56351888 7.33811133 9.52484637 9.1972081 11 12 C10.01 12.33 9.02 12.66 8 13 C6.84237881 11.78192862 5.6993417 10.54998765 4.5625 9.3125 C3.92441406 8.62800781 3.28632813 7.94351563 2.62890625 7.23828125 C0.83778902 4.77710578 0.37201442 2.99183426 0 0 Z " fill="#566E9F" transform="translate(150,138)"/>
<path d="M0 0 C0 4.49531858 -2.24050242 7.53931861 -5 11 C-7.5625 12.25 -7.5625 12.25 -10 13 C-12.27191416 15.02040748 -12.27191416 15.02040748 -14 17 C-14.66 16.67 -15.32 16.34 -16 16 C-10.66666667 10.66666667 -5.33333333 5.33333333 0 0 Z " fill="#7383B5" transform="translate(133,135)"/>
<path d="M0 0 C0.33 0 0.66 0 1 0 C1.16728213 4.11149887 1.32787468 8.22319806 1.48217773 12.33520508 C1.53566026 13.73501681 1.59099434 15.13475904 1.64819336 16.53442383 C1.72992949 18.5422896 1.80453025 20.55044187 1.87890625 22.55859375 C1.9260376 23.76829834 1.97316895 24.97800293 2.02172852 26.22436523 C2 29 2 29 1 30 C-0.51928038 30.07179964 -2.04167482 30.08392007 -3.5625 30.0625 C-4.38878906 30.05347656 -5.21507812 30.04445312 -6.06640625 30.03515625 C-7.02353516 30.01775391 -7.02353516 30.01775391 -8 30 C-8 29.67 -8 29.34 -8 29 C-5.69 29 -3.38 29 -1 29 C-0.67 19.43 -0.34 9.86 0 0 Z " fill="#707EA0" transform="translate(302,164)"/>
<path d="M0 0 C0.66 0.33 1.32 0.66 2 1 C0.44486447 4.81715086 -1.99599728 7.22707442 -5 10 C-5.33 10 -5.66 10 -6 10 C-6.36627907 4.50581395 -6.36627907 4.50581395 -4.6875 2.1875 C-3 1 -3 1 0 0 Z " fill="#445E91" transform="translate(106,151)"/>
<path d="M0 0 C3.375 0.3125 3.375 0.3125 7 1 C7.66 1.99 8.32 2.98 9 4 C8.0925 4.144375 7.185 4.28875 6.25 4.4375 C3.78523044 4.86409473 1.41152893 5.35074221 -1 6 C-1.33 4.68 -1.66 3.36 -2 2 C-1.34 2 -0.68 2 0 2 C0 1.34 0 0.68 0 0 Z " fill="#3F5379" transform="translate(291,157)"/>
<path d="M0 0 C1.18851562 0.00902344 2.37703125 0.01804688 3.6015625 0.02734375 C4.51679688 0.03894531 5.43203125 0.05054688 6.375 0.0625 C6.375 0.3925 6.375 0.7225 6.375 1.0625 C4.725 1.0625 3.075 1.0625 1.375 1.0625 C0.715 2.3825 0.055 3.7025 -0.625 5.0625 C-1.945 5.0625 -3.265 5.0625 -4.625 5.0625 C-4.625 4.4025 -4.625 3.7425 -4.625 3.0625 C-5.945 2.4025 -7.265 1.7425 -8.625 1.0625 C-5.74084117 -0.37957941 -3.20778472 -0.03144887 0 0 Z " fill="#51658F" transform="translate(482.625,156.9375)"/>
<path d="M0 0 C0.99 1.32 1.98 2.64 3 4 C0.48169253 7.12270126 -0.7261549 7.94523098 -4.75 8.75 C-6.35875 8.87375 -6.35875 8.87375 -8 9 C-7.04270084 7.87411986 -6.08412105 6.7493285 -5.125 5.625 C-4.59132812 4.99851562 -4.05765625 4.37203125 -3.5078125 3.7265625 C-2.38567993 2.44163349 -1.20628025 1.20628025 0 0 Z " fill="#4D6595" transform="translate(136,119)"/>
<path d="M0 0 C3.09385051 0.42651849 6.05482841 0.94275892 9 2 C10.5 4.4375 10.5 4.4375 11 7 C11.33 7.99 11.66 8.98 12 10 C11.67 10.66 11.34 11.32 11 12 C10.45730469 11.38511719 9.91460937 10.77023438 9.35546875 10.13671875 C8.64003906 9.32847656 7.92460938 8.52023438 7.1875 7.6875 C6.47980469 6.88699219 5.77210937 6.08648437 5.04296875 5.26171875 C3.40662878 3.45016838 1.74727832 1.70318297 0 0 Z " fill="#6277A6" transform="translate(107,191)"/>
<path d="M0 0 C0.33 0.66 0.66 1.32 1 2 C1.70125 1.731875 2.4025 1.46375 3.125 1.1875 C6.46011275 0.96999265 6.86550387 1.36830612 9.3125 3.4375 C10.199375 4.283125 11.08625 5.12875 12 6 C9.47064411 7.26467795 8.65809097 6.7249339 6 6 C5.01 6 4.02 6 3 6 C0.65554031 4.48299667 -0.74313901 3.51372198 -2 1 C-1.34 0.67 -0.68 0.34 0 0 Z " fill="#677FA5" transform="translate(141,120)"/>
<path d="M0 0 C3.85645121 -0.22036864 6.49223216 0.39644899 10 2 C10 1.34 10 0.68 10 0 C12.31 0.33 14.62 0.66 17 1 C17 1.66 17 2.32 17 3 C10.34058028 4.27947184 6.18453008 3.81115003 0 1 C0 0.67 0 0.34 0 0 Z " fill="#687693" transform="translate(272,191)"/>
<path d="M0 0 C2.97 0 5.94 0 9 0 C9.33 0.66 9.66 1.32 10 2 C9.109375 3.9453125 9.109375 3.9453125 7.75 6.125 C7.31171875 6.84945312 6.8734375 7.57390625 6.421875 8.3203125 C5.95265625 8.87460938 5.4834375 9.42890625 5 10 C4.01 10 3.02 10 2 10 C2.3125 8.125 2.3125 8.125 3 6 C3.99 5.34 4.98 4.68 6 4 C6.33 3.01 6.66 2.02 7 1 C4.69 1 2.38 1 0 1 C0 0.67 0 0.34 0 0 Z " fill="#3B4E73" transform="translate(490,181)"/>
<path d="M0 0 C1.98 0 3.96 0 6 0 C5.67 0.99 5.34 1.98 5 3 C3.66666667 3.33333333 2.33333333 3.66666667 1 4 C0.67 4.99 0.34 5.98 0 7 C-2.31 6.67 -4.62 6.34 -7 6 C-6 4 -6 4 -2.9375 2.875 C-1.4834375 2.441875 -1.4834375 2.441875 0 2 C0 1.34 0 0.68 0 0 Z " fill="#243C72" transform="translate(448,149)"/>
<path d="M0 0 C2 3 2 3 1.75 6.0625 C1 9 1 9 -1 11 C-3.1640625 11.1953125 -3.1640625 11.1953125 -5.625 11.125 C-6.44226563 11.10695312 -7.25953125 11.08890625 -8.1015625 11.0703125 C-8.72804687 11.04710937 -9.35453125 11.02390625 -10 11 C-10 10.34 -10 9.68 -10 9 C-7.03 9 -4.06 9 -1 9 C-0.67 6.03 -0.34 3.06 0 0 Z " fill="#656F96" transform="translate(244,183)"/>
<path d="M0 0 C0.66 0 1.32 0 2 0 C2.55353075 11.70615034 2.55353075 11.70615034 -1 16 C-1.99 15.34 -2.98 14.68 -4 14 C-3.34 14 -2.68 14 -2 14 C-1.34 9.38 -0.68 4.76 0 0 Z " fill="#4C6486" transform="translate(527,170)"/>
<path d="M0 0 C-0.66 0 -1.32 0 -2 0 C-1.67 1.65 -1.34 3.3 -1 5 C-3.875 5.625 -3.875 5.625 -7 6 C-7.66 5.34 -8.32 4.68 -9 4 C-6.35287314 0.09233654 -4.86783735 -1.62261245 0 0 Z " fill="#3D6195" transform="translate(184,167)"/>
<path d="M0 0 C0.99 0.99 1.98 1.98 3 3 C2.01 3 1.02 3 0 3 C-0.33 4.65 -0.66 6.3 -1 8 C-1.99 8.33 -2.98 8.66 -4 9 C-5.03864166 5.88407501 -5.09036928 4.9737344 -4 2 C-3.34 1.67 -2.68 1.34 -2 1 C-1.34 1.33 -0.68 1.66 0 2 C0 1.34 0 0.68 0 0 Z " fill="#25396D" transform="translate(252,162)"/>
<path d="M0 0 C1.65 0.33 3.3 0.66 5 1 C4.67 2.65 4.34 4.3 4 6 C2.35 6.33 0.7 6.66 -1 7 C-1 6.34 -1 5.68 -1 5 C-1.66 4.67 -2.32 4.34 -3 4 C-2.34 3.34 -1.68 2.68 -1 2 C-0.67 1.34 -0.34 0.68 0 0 Z " fill="#23396C" transform="translate(474,159)"/>
<path d="M0 0 C1.17539996 0.92652701 2.34010577 1.86663387 3.5 2.8125 C4.1496875 3.33457031 4.799375 3.85664063 5.46875 4.39453125 C7 6 7 6 7 9 C6.01 8.67 5.02 8.34 4 8 C4 7.01 4 6.02 4 5 C1.69 5.33 -0.62 5.66 -3 6 C-3 3 -3 3 -1.5 1.3125 C-0.7575 0.6628125 -0.7575 0.6628125 0 0 Z " fill="#6C84AF" transform="translate(132,169)"/>
<path d="M0 0 C1.79068573 2.6860286 2.66055791 4.6626589 3.625 7.6875 C3.88539063 8.49574219 4.14578125 9.30398437 4.4140625 10.13671875 C4.60742188 10.75160156 4.80078125 11.36648437 5 12 C2 11 2 11 1.0625 9.1875 C0.5365625 8.1046875 0.5365625 8.1046875 0 7 C-1.29470975 5.62913085 -2.62150897 4.28659163 -4 3 C-3.01 2.67 -2.02 2.34 -1 2 C-0.67 1.34 -0.34 0.68 0 0 Z " fill="#546284" transform="translate(228,145)"/>
<path d="M0 0 C3.63 0 7.26 0 11 0 C10.01 0.495 10.01 0.495 9 1 C8.67 1.66 8.34 2.32 8 3 C4.625 3.75 4.625 3.75 1 4 C0.01 3.34 -0.98 2.68 -2 2 C-1.34 2 -0.68 2 0 2 C0 1.34 0 0.68 0 0 Z " fill="#233660" transform="translate(251,145)"/>
<path d="M0 0 C0.99 0.33 1.98 0.66 3 1 C3 5.62 3 10.24 3 15 C2.67 15 2.34 15 2 15 C-0.28571429 6.57142857 -0.28571429 6.57142857 0 2 C-0.66 1.67 -1.32 1.34 -2 1 C-1.34 0.67 -0.68 0.34 0 0 Z " fill="#152075" transform="translate(262,145)"/>
<path d="M0 0 C-0.54226981 3.79588866 -2.20127563 5.47211993 -5 8 C-6.32 7.34 -7.64 6.68 -9 6 C-7.8803014 4.99406757 -6.7540588 3.9954151 -5.625 3 C-4.68527344 2.1646875 -4.68527344 2.1646875 -3.7265625 1.3125 C-2 0 -2 0 0 0 Z " fill="#546C9A" transform="translate(155,192)"/>
<path d="M0 0 C2.97 0 5.94 0 9 0 C9 1.32 9 2.64 9 4 C6.03 4 3.06 4 0 4 C0 2.68 0 1.36 0 0 Z " fill="#57628A" transform="translate(583,190)"/>
<path d="M0 0 C1.98 0.66 3.96 1.32 6 2 C5.67 3.98 5.34 5.96 5 8 C4.67 7.34 4.34 6.68 4 6 C1.98330173 4.86649466 1.98330173 4.86649466 0 4 C0 2.68 0 1.36 0 0 Z " fill="#4F6596" transform="translate(175,153)"/>
<path d="M0 0 C0.66 0 1.32 0 2 0 C2 0.66 2 1.32 2 2 C2.99 1.67 3.98 1.34 5 1 C7 7.75 7 7.75 7 10 C6.34 10 5.68 10 5 10 C3 7 3 7 3 3 C2.34 3 1.68 3 1 3 C0.67 2.01 0.34 1.02 0 0 Z " fill="#607194" transform="translate(325,183)"/>
<path d="M0 0 C2.31 0.66 4.62 1.32 7 2 C7 2.99 7 3.98 7 5 C5.1875 5.6875 5.1875 5.6875 3 6 C1.25 4.75 1.25 4.75 0 3 C0 2.01 0 1.02 0 0 Z " fill="#4D6595" transform="translate(146,125)"/>
<path d="M0 0 C1.32 0.33 2.64 0.66 4 1 C3.67 2.98 3.34 4.96 3 7 C4.32 7.66 5.64 8.32 7 9 C4.625 8.6875 4.625 8.6875 2 8 C-0.1519437 4.77208445 -0.20086443 3.71599191 0 0 Z " fill="#58648D" transform="translate(505,184)"/>
<path d="M0 0 C4.6302521 1.46218487 4.6302521 1.46218487 6.375 4 C7 6 7 6 6 8 C5.01 8 4.02 8 3 8 C3 7.01 3 6.02 3 5 C2.34 5 1.68 5 1 5 C0.67 3.35 0.34 1.7 0 0 Z " fill="#283D76" transform="translate(423,146)"/>
<path d="M0 0 C0.99 0 1.98 0 3 0 C3 1.32 3 2.64 3 4 C3.66 4 4.32 4 5 4 C4.34 5.32 3.68 6.64 3 8 C0.9375 6.25 0.9375 6.25 -1 4 C-0.75 1.75 -0.75 1.75 0 0 Z " fill="#4D6598" transform="translate(167,144)"/>
<path d="M0 0 C1 3 1 3 1 7 C-2.13349732 8.04449911 -2.98968256 7.93423645 -6 7 C-6 6.34 -6 5.68 -6 5 C-4.04072937 3.2856382 -2.04119788 1.61594832 0 0 Z " fill="#5A6EA1" transform="translate(123,132)"/>
<path d="M0 0 C2.00720923 0.28674418 4.0085944 0.61866701 6 1 C6 1.33 6 1.66 6 2 C4.35 2 2.7 2 1 2 C1.33 3.65 1.66 5.3 2 7 C3.98 7 5.96 7 8 7 C7.67 7.66 7.34 8.32 7 9 C4.125 9.125 4.125 9.125 1 9 C-1 7 -1 7 -1.1875 3.9375 C-1 1 -1 1 0 0 Z " fill="#8898B6" transform="translate(281,178)"/>
<path d="M0 0 C2.46800047 1.15173355 4.04783565 2.04783565 6 4 C5.625 6.625 5.625 6.625 5 9 C4.01 9 3.02 9 2 9 C2.33 8.01 2.66 7.02 3 6 C1.62507196 2.8331162 1.62507196 2.8331162 0 0 Z " fill="#657CA2" transform="translate(182,170)"/>
<path d="M0 0 C0 0.99 0 1.98 0 3 C-0.99 3 -1.98 3 -3 3 C-2.67 3.99 -2.34 4.98 -2 6 C-2.99 5.67 -3.98 5.34 -5 5 C-4.67 4.34 -4.34 3.68 -4 3 C-5.65 3 -7.3 3 -9 3 C-7.14340032 -0.71319936 -3.69365381 -0.09982848 0 0 Z " fill="#546588" transform="translate(360,157)"/>
<path d="M0 0 C2.23551759 3.35327639 2.17283528 3.90743657 1.625 7.6875 C1.51414062 8.49574219 1.40328125 9.30398437 1.2890625 10.13671875 C1.19367188 10.75160156 1.09828125 11.36648437 1 12 C1.66 12 2.32 12 3 12 C2.67 13.65 2.34 15.3 2 17 C-0.49118953 13.2632157 -0.2065226 11.25548181 -0.125 6.8125 C-0.10695313 5.54019531 -0.08890625 4.26789063 -0.0703125 2.95703125 C-0.04710937 1.98121094 -0.02390625 1.00539062 0 0 Z " fill="#3D4D6E" transform="translate(465,169)"/>
<path d="M0 0 C0.66 0.66 1.32 1.32 2 2 C1.625 5.625 1.625 5.625 1 9 C0.01 9 -0.98 9 -2 9 C-2.20140476 5.37471432 -1.85776765 3.13498292 0 0 Z " fill="#4D597E" transform="translate(460,160)"/>
<path d="M0 0 C0.66 0.33 1.32 0.66 2 1 C2.4375 3.1875 2.4375 3.1875 2 6 C-0.13995327 7.98441782 -2.50175965 9.5023304 -5 11 C-4.67 9.68 -4.34 8.36 -4 7 C-3.34 7 -2.68 7 -2 7 C-2 5.02 -2 3.04 -2 1 C-1.67 2.32 -1.34 3.64 -1 5 C-0.34 5 0.32 5 1 5 C0.67 3.35 0.34 1.7 0 0 Z " fill="#7D8FB2" transform="translate(172,160)"/>
<path d="M0 0 C3.3 0 6.6 0 10 0 C9.67 1.32 9.34 2.64 9 4 C8.67 3.67 8.34 3.34 8 3 C5.67182036 2.63239269 3.3381615 2.29758419 1 2 C0.67 2.66 0.34 3.32 0 4 C0 2.68 0 1.36 0 0 Z " fill="#596C89" transform="translate(544,157)"/>
<path d="M0 0 C0 0.66 0 1.32 0 2 C2.97 2 5.94 2 9 2 C9 2.33 9 2.66 9 3 C-0.41002278 4.51708428 -0.41002278 4.51708428 -5 2 C-2 0 -2 0 0 0 Z " fill="#707997" transform="translate(355,191)"/>
<path d="M0 0 C-1.75 2 -1.75 2 -4 4 C-5.32 4 -6.64 4 -8 4 C-7.67 3.01 -7.34 2.02 -7 1 C-4.53721199 -0.231394 -2.7204945 -0.07159196 0 0 Z M-6 4 C-5.34 4.66 -4.68 5.32 -4 6 C-4.66 6 -5.32 6 -6 6 C-6.33 6.66 -6.66 7.32 -7 8 C-7 5 -7 5 -6 4 Z " fill="#5C6B94" transform="translate(403,157)"/>
<path d="M0 0 C0.66 0.33 1.32 0.66 2 1 C0.90653119 2.34212062 -0.2001575 3.67347975 -1.3125 5 C-2.23482422 6.11375 -2.23482422 6.11375 -3.17578125 7.25 C-5 9 -5 9 -8 9 C-6.90101298 5.70303895 -6.05402613 4.95329411 -3.4375 2.8125 C-2.79683594 2.28269531 -2.15617187 1.75289062 -1.49609375 1.20703125 C-0.75552734 0.60955078 -0.75552734 0.60955078 0 0 Z " fill="#405B8F" transform="translate(124,146)"/>
<path d="M0 0 C1.12894876 0.93274109 2.25300876 1.87140122 3.375 2.8125 C4.00148437 3.33457031 4.62796875 3.85664063 5.2734375 4.39453125 C7 6 7 6 9 9 C6.75 8.875 6.75 8.875 4 8 C0 2.91891892 0 2.91891892 0 0 Z " fill="#7D9DB7" transform="translate(125,189)"/>
<path d="M0 0 C0.99 0.33 1.98 0.66 3 1 C3 1.99 3 2.98 3 4 C3.66 4 4.32 4 5 4 C5 4.66 5 5.32 5 6 C5.99 6.33 6.98 6.66 8 7 C6.35 7.33 4.7 7.66 3 8 C0 2.25 0 2.25 0 0 Z " fill="#364774" transform="translate(557,186)"/>
<path d="M0 0 C1.67542976 0.28604898 3.34385343 0.61781233 5 1 C5 1.66 5 2.32 5 3 C2.36 3.66 -0.28 4.32 -3 5 C-1.125 1.125 -1.125 1.125 0 0 Z " fill="#475A81" transform="translate(275,173)"/>
<path d="M0 0 C0.66 0 1.32 0 2 0 C1.64950425 3.24208567 1.43778819 4.61527704 -1.0625 6.8125 C-1.701875 7.204375 -2.34125 7.59625 -3 8 C-2.25 2.25 -2.25 2.25 0 0 Z " fill="#3C4B74" transform="translate(334,163)"/>
<path d="M0 0 C0.99 0.33 1.98 0.66 3 1 C2.875 2.875 2.875 2.875 2 5 C-1.0625 6.25 -1.0625 6.25 -4 7 C-3.39816251 4.97954558 -2.72693904 2.97888961 -2 1 C-1.34 0.67 -0.68 0.34 0 0 Z " fill="#233969" transform="translate(353,159)"/>
<path d="M0 0 C0.66 0 1.32 0 2 0 C2 0.66 2 1.32 2 2 C2.99 1.67 3.98 1.34 5 1 C5 1.66 5 2.32 5 3 C4.34 3 3.68 3 3 3 C3 3.99 3 4.98 3 6 C3.66 6 4.32 6 5 6 C4.67 6.99 4.34 7.98 4 9 C2.35 9.33 0.7 9.66 -1 10 C-0.34 9.34 0.32 8.68 1 8 C1.02375926 6.0068433 1.02375926 6.0068433 0.625 3.875 C0.41875 2.59625 0.2125 1.3175 0 0 Z " fill="#3E4D78" transform="translate(449,156)"/>
<path d="M0 0 C0.99 0.495 0.99 0.495 2 1 C2 1.66 2 2.32 2 3 C2.639375 3.28875 3.27875 3.5775 3.9375 3.875 C6 5 6 5 7 7 C5.125 7.625 5.125 7.625 3 8 C0.4345406 5.4345406 0.45953913 3.52313332 0 0 Z " fill="#7183B0" transform="translate(111,175)"/>
<path d="M0 0 C2.97 0 5.94 0 9 0 C9 0.99 9 1.98 9 3 C6.03 3 3.06 3 0 3 C0 2.01 0 1.02 0 0 Z " fill="#69778E" transform="translate(600,157)"/>
<path d="M0 0 C-0.33 0.99 -0.66 1.98 -1 3 C-2.27875 3.144375 -3.5575 3.28875 -4.875 3.4375 C-7.25692894 3.70642746 -8.84452691 3.92226346 -11 5 C-10 2 -10 2 -7.75 0.8125 C-5.00208853 0.00061706 -2.84552111 -0.16260121 0 0 Z " fill="#6F82A5" transform="translate(285,157)"/>
<path d="M0 0 C1.65 1.65 3.3 3.3 5 5 C3.68 5.99 2.36 6.98 1 8 C0.01 7.01 -0.98 6.02 -2 5 C-0.68 5.33 0.64 5.66 2 6 C1.34 5.34 0.68 4.68 0 4 C-0.33 3.34 -0.66 2.68 -1 2 C-0.67 1.34 -0.34 0.68 0 0 Z " fill="#6F82A8" transform="translate(164,138)"/>
<path d="M0 0 C1.32 0 2.64 0 4 0 C4.66666667 2 5.33333333 4 6 6 C4.02 5.34 2.04 4.68 0 4 C0 2.68 0 1.36 0 0 Z " fill="#455F94" transform="translate(160,138)"/>
<path d="M0 0 C0.99 1.32 1.98 2.64 3 4 C2.01 5.32 1.02 6.64 0 8 C-0.99 7.67 -1.98 7.34 -3 7 C-2.34 7 -1.68 7 -1 7 C-1.33 6.01 -1.66 5.02 -2 4 C-1.0625 1.8125 -1.0625 1.8125 0 0 Z " fill="#4B6392" transform="translate(125,130)"/>
<path d="M0 0 C0 1.32 0 2.64 0 4 C-2.64 4 -5.28 4 -8 4 C-8 3.34 -8 2.68 -8 2 C-2.25 0 -2.25 0 0 0 Z " fill="#607691" transform="translate(609,190)"/>
<path d="M0 0 C0.33 0 0.66 0 1 0 C1.38063221 2.3260857 1.71269945 4.66055264 2 7 C1 8 1 8 -1.28515625 8.09765625 C-2.65994141 8.08025391 -2.65994141 8.08025391 -4.0625 8.0625 C-4.98160156 8.05347656 -5.90070313 8.04445312 -6.84765625 8.03515625 C-7.55792969 8.02355469 -8.26820313 8.01195312 -9 8 C-9 7.67 -9 7.34 -9 7 C-7.88625 6.855625 -6.7725 6.71125 -5.625 6.5625 C-2.17857953 6.21627965 -2.17857953 6.21627965 0 5 C0 3.35 0 1.7 0 0 Z " fill="#7A87B5" transform="translate(377,186)"/>
<path d="M0 0 C0.66 0 1.32 0 2 0 C2 0.66 2 1.32 2 2 C2.99 1.67 3.98 1.34 5 1 C5.99 2.98 6.98 4.96 8 7 C4.59679258 5.98823563 3.24274669 5.35156418 1.1875 2.375 C0.795625 1.59125 0.40375 0.8075 0 0 Z " fill="#939FBD" transform="translate(130,187)"/>
<path d="M0 0 C0.33 0.99 0.66 1.98 1 3 C-0.4375 5.6875 -0.4375 5.6875 -2 8 C-3.32 7.67 -4.64 7.34 -6 7 C-4.02 4.69 -2.04 2.38 0 0 Z " fill="#566A9E" transform="translate(145,199)"/>
<path d="M0 0 C0.99 0 1.98 0 3 0 C3 0.99 3 1.98 3 3 C2.34 3 1.68 3 1 3 C0.67 3.99 0.34 4.98 0 6 C-0.66 6 -1.32 6 -2 6 C-1.125 1.125 -1.125 1.125 0 0 Z " fill="#5D74A1" transform="translate(159,201)"/>
<path d="M0 0 C0.66 0.33 1.32 0.66 2 1 C0 3 -2 5 -4 7 C-4.33 5.68 -4.66 4.36 -5 3 C-2.625 1.4375 -2.625 1.4375 0 0 Z " fill="#243763" transform="translate(279,159)"/>
<path d="M0 0 C2.64 0 5.28 0 8 0 C7.67 1.32 7.34 2.64 7 4 C5.35 3.67 3.7 3.34 2 3 C2 2.34 2 1.68 2 1 C1.34 0.67 0.68 0.34 0 0 Z " fill="#24355E" transform="translate(220,145)"/>
<path d="M0 0 C2 1.375 2 1.375 4 3 C4 3.66 4 4.32 4 5 C4.99 5.33 5.98 5.66 7 6 C6.34 6.66 5.68 7.32 5 8 C5 7.34 5 6.68 5 6 C3.68 5.67 2.36 5.34 1 5 C0.67 3.35 0.34 1.7 0 0 Z " fill="#6D81AB" transform="translate(150,138)"/>
<path d="M0 0 C0.33 1.32 0.66 2.64 1 4 C-0.65 5.32 -2.3 6.64 -4 8 C-4 6.68 -4 5.36 -4 4 C-3.34 4 -2.68 4 -2 4 C-1.34 2.68 -0.68 1.36 0 0 Z " fill="#7487AC" transform="translate(153,208)"/>
<path d="M0 0 C1.45880109 0.14107747 2.91703551 0.28802415 4.375 0.4375 C5.59316406 0.55931641 5.59316406 0.55931641 6.8359375 0.68359375 C9 1 9 1 11 2 C10.34 2.66 9.68 3.32 9 4 C6.8359375 3.9765625 6.8359375 3.9765625 4.375 3.625 C3.55773437 3.51414063 2.74046875 3.40328125 1.8984375 3.2890625 C1.27195312 3.19367188 0.64546875 3.09828125 0 3 C0 2.01 0 1.02 0 0 Z " fill="#707F9A" transform="translate(476,183)"/>
<path d="M0 0 C0.33 0.99 0.66 1.98 1 3 C0.34 3.66 -0.32 4.32 -1 5 C-1.66 4.34 -2.32 3.68 -3 3 C-3.33 3.66 -3.66 4.32 -4 5 C-4.99 4.01 -5.98 3.02 -7 2 C-4 0 -4 0 0 0 Z " fill="#4D5F86" transform="translate(491,164)"/>
<path d="M0 0 C0.99 0.33 1.98 0.66 3 1 C2.34 2.65 1.68 4.3 1 6 C-0.32 5.34 -1.64 4.68 -3 4 C-2.67 3.34 -2.34 2.68 -2 2 C-1.34 2 -0.68 2 0 2 C0 1.34 0 0.68 0 0 Z " fill="#253A72" transform="translate(284,158)"/>
<path d="M0 0 C2.97 0 5.94 0 9 0 C9.33 0.66 9.66 1.32 10 2 C9.01 3.32 8.02 4.64 7 6 C7 4.35 7 2.7 7 1 C4.69 1 2.38 1 0 1 C0 0.67 0 0.34 0 0 Z " fill="#98A2B7" transform="translate(490,181)"/>
<path d="M0 0 C0.99 0.33 1.98 0.66 3 1 C1.84826645 3.46800047 0.95216435 5.04783565 -1 7 C-1.99 7 -2.98 7 -4 7 C-2.79618552 4.50638429 -1.54571278 2.31856917 0 0 Z " fill="#3F5C98" transform="translate(171,175)"/>
<path d="M0 0 C1.32 0 2.64 0 4 0 C3.34 2.64 2.68 5.28 2 8 C1.67 6.68 1.34 5.36 1 4 C0.34 3.67 -0.32 3.34 -1 3 C-0.67 2.01 -0.34 1.02 0 0 Z " fill="#505E83" transform="translate(247,170)"/>
<path d="M0 0 C0.99 0 1.98 0 3 0 C4.25541557 3.76624671 3.37061958 5.37188934 2 9 C1.67 9 1.34 9 1 9 C0.67 6.03 0.34 3.06 0 0 Z " fill="#435276" transform="translate(226,167)"/>
<path d="M0 0 C0.66 0.66 1.32 1.32 2 2 C1.75 4.0625 1.75 4.0625 1 6 C0.01 6.495 0.01 6.495 -1 7 C-1.66 5.02 -2.32 3.04 -3 1 C-2.01 0.67 -1.02 0.34 0 0 Z " fill="#6C7EA7" transform="translate(145,160)"/>
<path d="M0 0 C0.99 0 1.98 0 3 0 C3 0.66 3 1.32 3 2 C3.66 2 4.32 2 5 2 C5.33 2.99 5.66 3.98 6 5 C3 5 3 5 1.3125 3.625 C0 2 0 2 0 0 Z " fill="#536898" transform="translate(126,208)"/>
<path d="M0 0 C2.9375 0.75 2.9375 0.75 6 2 C6.875 4.125 6.875 4.125 7 6 C6.01 6 5.02 6 4 6 C1.8125 3 1.8125 3 0 0 Z " fill="#485E8E" transform="translate(120,202)"/>
<path d="M0 0 C0 0.66 0 1.32 0 2 C-2.31 2.33 -4.62 2.66 -7 3 C-7.33 2.34 -7.66 1.68 -8 1 C-3.375 -1.125 -3.375 -1.125 0 0 Z " fill="#56648B" transform="translate(493,191)"/>
<path d="M0 0 C0.33 0 0.66 0 1 0 C0.67 2.31 0.34 4.62 0 7 C-1.98 7 -3.96 7 -6 7 C-2.25 4 -2.25 4 0 4 C0 2.68 0 1.36 0 0 Z " fill="#24375C" transform="translate(301,186)"/>
<path d="M0 0 C1.485 0.99 1.485 0.99 3 2 C2.67 3.65 2.34 5.3 2 7 C1.01 6.67 0.02 6.34 -1 6 C-0.67 4.02 -0.34 2.04 0 0 Z " fill="#485782" transform="translate(334,177)"/>
<path d="M0 0 C0.66 0.33 1.32 0.66 2 1 C2 1.99 2 2.98 2 4 C0.35 4.33 -1.3 4.66 -3 5 C-2.01 3.35 -1.02 1.7 0 0 Z " fill="#6179A0" transform="translate(174,170)"/>
<path d="M0 0 C0.99 0.495 0.99 0.495 2 1 C4.09821215 0.60061233 4.09821215 0.60061233 6 0 C6.33 0.99 6.66 1.98 7 3 C6.34 3.66 5.68 4.32 5 5 C4.34 4.34 3.68 3.68 3 3 C2.01 3 1.02 3 0 3 C0 2.01 0 1.02 0 0 Z " fill="#264A7B" transform="translate(241,166)"/>
<path d="M0 0 C2.31 0 4.62 0 7 0 C6.34 1.32 5.68 2.64 5 4 C3.31503702 3.03114628 1.64821244 2.03013277 0 1 C0 0.67 0 0.34 0 0 Z " fill="#22386B" transform="translate(293,161)"/>
<path d="M0 0 C1.32 0.66 2.64 1.32 4 2 C1.03 4.475 1.03 4.475 -2 7 C-2.33 6.01 -2.66 5.02 -3 4 C-2.01 4 -1.02 4 0 4 C0 2.68 0 1.36 0 0 Z " fill="#6A7CA9" transform="translate(131,153)"/>
<path d="M0 0 C1.98 0 3.96 0 6 0 C6 0.99 6 1.98 6 3 C3.69 2.67 1.38 2.34 -1 2 C-0.67 1.34 -0.34 0.68 0 0 Z " fill="#586A8B" transform="translate(442,153)"/>
<path d="M0 0 C0.99 0.33 1.98 0.66 3 1 C3 1.99 3 2.98 3 4 C1.68 4.33 0.36 4.66 -1 5 C-1 4.34 -1 3.68 -1 3 C-1.66 2.67 -2.32 2.34 -3 2 C-2.01 1.34 -1.02 0.68 0 0 Z " fill="#5F719C" transform="translate(153,129)"/>
<path d="M0 0 C0.66 0 1.32 0 2 0 C1.67 0.66 1.34 1.32 1 2 C0.67 1.34 0.34 0.68 0 0 Z " fill="#0000AA" transform="translate(104,166)"/>
<path d="M0 0 C2 1 2 1 2 1 Z " fill="#000000" transform="translate(106,168)"/>
</svg>
